<?xml version="1.0" encoding="UTF-8" standalone="no"?>
<!-- Created with Inkscape (http://www.inkscape.org/) -->

<svg
   xmlns:dc="http://purl.org/dc/elements/1.1/"
   xmlns:cc="http://creativecommons.org/ns#"
   xmlns:rdf="http://www.w3.org/1999/02/22-rdf-syntax-ns#"
   xmlns:svg="http://www.w3.org/2000/svg"
   xmlns="http://www.w3.org/2000/svg"
   xmlns:sodipodi="http://sodipodi.sourceforge.net/DTD/sodipodi-0.dtd"
   xmlns:inkscape="http://www.inkscape.org/namespaces/inkscape"
   width="600"
   height="400"
   viewBox="0 0 600.00001 400.00001"
   id="svg2"
   version="1.1"
   inkscape:version="0.91 r"
   sodipodi:docname="intro.svg">
  <defs
     id="defs4" />
  <sodipodi:namedview
     id="base"
     pagecolor="#ffffff"
     bordercolor="#666666"
     borderopacity="1.0"
     inkscape:pageopacity="0.0"
     inkscape:pageshadow="2"
     inkscape:zoom="1.4142136"
     inkscape:cx="321.60265"
     inkscape:cy="194.91091"
     inkscape:document-units="px"
     inkscape:current-layer="layer1"
     showgrid="false"
     units="px"
     inkscape:window-width="1920"
     inkscape:window-height="1004"
     inkscape:window-x="1920"
     inkscape:window-y="25"
     inkscape:window-maximized="1" />
  <metadata
     id="metadata7">
    <rdf:RDF>
      <cc:Work
         rdf:about="">
        <dc:format>image/svg+xml</dc:format>
        <dc:type
           rdf:resource="http://purl.org/dc/dcmitype/StillImage" />
        <dc:title></dc:title>
      </cc:Work>
    </rdf:RDF>
  </metadata>
  <g
     inkscape:label="Layer 1"
     inkscape:groupmode="layer"
     id="layer1"
     transform="translate(0,-652.36216)">
    <path
       style="opacity:1;fill:#00d4aa;fill-opacity:1;stroke:none;stroke-width:6;stroke-linecap:round;stroke-linejoin:round;stroke-miterlimit:4;stroke-dasharray:none;stroke-opacity:1"
       d="m 133.30781,881.67682 26.01182,0 c 3.91738,0 7.07109,3.15371 7.07109,7.07109 l 0,36.36544 c 0,3.91739 -3.15371,7.07109 -7.07109,7.07109 l -26.01182,0 c -3.91739,0 -7.07109,-3.1537 -7.07109,-7.07109 l 0,-36.36544 c 0,-3.91738 3.1537,-7.07109 7.07109,-7.07109 z"
       id="rect4156" />
    <path
       style="opacity:1;fill:#00d4aa;fill-opacity:1;stroke:none;stroke-width:6;stroke-linecap:round;stroke-linejoin:round;stroke-miterlimit:4;stroke-dasharray:none;stroke-opacity:1"
       d="m 133.30781,819.89111 26.01182,0 c 3.91738,0 7.07109,3.15371 7.07109,7.07109 l 0,36.36545 c 0,3.91738 -3.15371,7.07109 -7.07109,7.07109 l -26.01182,0 c -3.91739,0 -7.07109,-3.15371 -7.07109,-7.07109 l 0,-36.36545 c 0,-3.91738 3.1537,-7.07109 7.07109,-7.07109 z"
       id="rect4154" />
    <path
       style="opacity:1;fill:#00d4aa;fill-opacity:1;stroke:none;stroke-width:6;stroke-linecap:round;stroke-linejoin:round;stroke-miterlimit:4;stroke-dasharray:none;stroke-opacity:1"
       d="m 133.30781,758.77686 26.01182,0 c 3.91738,0 7.07109,3.1537 7.07109,7.07109 l 0,36.36544 c 0,3.91738 -3.15371,7.07109 -7.07109,7.07109 l -26.01182,0 c -3.91739,0 -7.07109,-3.15371 -7.07109,-7.07109 l 0,-36.36544 c 0,-3.91739 3.1537,-7.07109 7.07109,-7.07109 z"
       id="rect4152" />
    <g
       style="font-style:normal;font-variant:normal;font-weight:normal;font-stretch:normal;font-size:40px;line-height:125%;font-family:LKLUG;-inkscape-font-specification:LKLUG;letter-spacing:0px;word-spacing:0px;fill:#000000;fill-opacity:1;stroke:none;stroke-width:1px;stroke-linecap:butt;stroke-linejoin:miter;stroke-opacity:1"
       id="text4136">
      <path
         d="m 29.886543,722.35431 -1.953125,0 -0.01953,-5.87891 q -2.050781,-0.0391 -4.101562,-0.46875 -2.050782,-0.44922 -4.121094,-1.32812 l 0,-3.51563 q 1.992187,1.25 4.023437,1.89453 2.050782,0.625 4.21875,0.64454 l 0,-8.90625 q -4.316406,-0.70313 -6.289062,-2.38282 -1.953125,-1.67968 -1.953125,-4.60937 0,-3.1836 2.128906,-5.01953 2.128906,-1.83594 6.113281,-2.10938 l 0,-4.58984 1.953125,0 0,4.53125 q 1.816407,0.0781 3.515625,0.39062 1.699219,0.29297 3.320313,0.82032 l 0,3.41796 q -1.621094,-0.82031 -3.339844,-1.26953 -1.699219,-0.44922 -3.496094,-0.52734 l 0,8.33984 q 4.433594,0.6836 6.523438,2.44141 2.089844,1.75781 2.089844,4.80469 0,3.30078 -2.226563,5.21484 -2.207031,1.89453 -6.386719,2.1875 l 0,5.91797 z m -1.953125,-20.91797 0,-8.00781 q -2.265625,0.2539 -3.457031,1.28906 -1.191406,1.03516 -1.191406,2.75391 0,1.67968 1.09375,2.61718 1.113281,0.9375 3.554687,1.34766 z m 1.953125,3.75 0,8.45703 q 2.480469,-0.33203 3.730469,-1.40625 1.269531,-1.07422 1.269531,-2.83203 0,-1.71875 -1.210937,-2.73437 -1.191406,-1.01563 -3.789063,-1.48438 z"
         style=""
         id="path4390" />
      <path
         d="m 61.820137,713.19415 0,11.60157 -3.613281,0 0,-30.19532 3.613281,0 0,3.32032 q 1.132813,-1.95313 2.851563,-2.89063 1.738281,-0.95703 4.140625,-0.95703 3.984375,0 6.464843,3.16406 2.5,3.16406 2.5,8.32031 0,5.15625 -2.5,8.32032 -2.480468,3.16406 -6.464843,3.16406 -2.402344,0 -4.140625,-0.9375 -1.71875,-0.95703 -2.851563,-2.91016 z M 74.0467,705.55743 q 0,-3.96484 -1.640625,-6.21093 -1.621094,-2.26563 -4.472657,-2.26563 -2.851562,0 -4.492187,2.26563 -1.621094,2.24609 -1.621094,6.21093 0,3.96485 1.621094,6.23047 1.640625,2.2461 4.492187,2.2461 2.851563,0 4.472657,-2.2461 1.640625,-2.26562 1.640625,-6.23047 z"
         style=""
         id="path4392" />
      <path
         d="m 101.91779,703.27228 0,13.20312 -3.593747,0 0,-13.08593 q 0,-3.10547 -1.210937,-4.64844 -1.210938,-1.54297 -3.632813,-1.54297 -2.910156,0 -4.589843,1.85547 -1.679688,1.85547 -1.679688,5.05859 l 0,12.36328 -3.613281,0 0,-30.39062 3.613281,0 0,11.91406 q 1.289063,-1.97266 3.027344,-2.94922 1.757812,-0.97656 4.042969,-0.97656 3.769531,0 5.703125,2.34375 1.93359,2.32422 1.93359,6.85547 z"
         style=""
         id="path4394" />
    </g>
    <g
       style="font-style:normal;font-variant:normal;font-weight:normal;font-stretch:normal;font-size:40px;line-height:125%;font-family:LKLUG;-inkscape-font-specification:LKLUG;letter-spacing:0px;word-spacing:0px;fill:#000000;fill-opacity:1;stroke:none;stroke-width:1px;stroke-linecap:butt;stroke-linejoin:miter;stroke-opacity:1"
       id="text4140">
      <path
         d="m 145.48763,775.94666 q -2.89063,0 -4.57032,2.26562 -1.67968,2.24609 -1.67968,6.17188 0,3.92578 1.66015,6.1914 1.67969,2.2461 4.58985,2.2461 2.87109,0 4.55078,-2.26563 1.67968,-2.26562 1.67968,-6.17187 0,-3.88672 -1.67968,-6.15235 -1.67969,-2.28515 -4.55078,-2.28515 z m 0,-3.04688 q 4.6875,0 7.36328,3.04688 2.67578,3.04687 2.67578,8.4375 0,5.37109 -2.67578,8.4375 -2.67578,3.04687 -7.36328,3.04687 -4.70704,0 -7.38282,-3.04687 -2.65625,-3.06641 -2.65625,-8.4375 0,-5.39063 2.65625,-8.4375 2.67578,-3.04688 7.38282,-3.04688 z"
         style="fill:#ffffff"
         id="path4397" />
      <path
         d="m 186.87434,776.7865 q -0.60546,-0.35156 -1.32812,-0.50781 -0.70313,-0.17578 -1.5625,-0.17578 -3.04688,0 -4.6875,1.99218 -1.62109,1.97266 -1.62109,5.6836 l 0,11.52343 -3.61329,0 0,-21.875 3.61329,0 0,3.39844 q 1.13281,-1.99219 2.94921,-2.94922 1.81641,-0.97656 4.41407,-0.97656 0.37109,0 0.82031,0.0586 0.44922,0.0391 0.99609,0.13672 l 0.0195,3.69141 z"
         style=""
         id="path4399" />
      <path
         d="m 190.68294,773.42712 3.59375,0 0,21.875 -3.59375,0 0,-21.875 z m 0,-8.51562 3.59375,0 0,4.55078 -3.59375,0 0,-4.55078 z"
         style=""
         id="path4401" />
      <path
         d="m 216.17122,784.11072 q 0,-3.90625 -1.62109,-6.05469 -1.60157,-2.14844 -4.51172,-2.14844 -2.89063,0 -4.51172,2.14844 -1.60156,2.14844 -1.60156,6.05469 0,3.88672 1.60156,6.03515 1.62109,2.14844 4.51172,2.14844 2.91015,0 4.51172,-2.14844 1.62109,-2.14843 1.62109,-6.03515 z m 3.59375,8.47656 q 0,5.58594 -2.48047,8.30078 -2.48047,2.73438 -7.59766,2.73438 -1.89453,0 -3.57421,-0.29297 -1.67969,-0.27344 -3.26172,-0.85938 l 0,-3.49609 q 1.58203,0.85937 3.125,1.26953 1.54297,0.41016 3.14453,0.41016 3.53515,0 5.29297,-1.85547 1.75781,-1.83594 1.75781,-5.56641 l 0,-1.77734 q -1.11328,1.93359 -2.85156,2.89062 -1.73828,0.95703 -4.16016,0.95703 -4.02344,0 -6.48437,-3.0664 -2.46094,-3.06641 -2.46094,-8.125 0,-5.07813 2.46094,-8.14453 2.46093,-3.06641 6.48437,-3.06641 2.42188,0 4.16016,0.95703 1.73828,0.95703 2.85156,2.89063 l 0,-3.32032 3.59375,0 0,19.16016 z"
         style=""
         id="path4403" />
      <path
         d="m 227.16731,773.42712 3.59375,0 0,21.875 -3.59375,0 0,-21.875 z m 0,-8.51562 3.59375,0 0,4.55078 -3.59375,0 0,-4.55078 z"
         style=""
         id="path4405" />
      <path
         d="m 256.44466,782.099 0,13.20312 -3.59375,0 0,-13.08593 q 0,-3.10547 -1.21094,-4.64844 -1.21094,-1.54297 -3.63281,-1.54297 -2.91016,0 -4.58985,1.85547 -1.67968,1.85547 -1.67968,5.05859 l 0,12.36328 -3.61329,0 0,-21.875 3.61329,0 0,3.39844 q 1.28906,-1.97265 3.02734,-2.94922 1.75781,-0.97656 4.04297,-0.97656 3.76953,0 5.70312,2.34375 1.9336,2.32422 1.9336,6.85547 z"
         style=""
         id="path4407" />
    </g>
    <g
       style="font-style:normal;font-variant:normal;font-weight:normal;font-stretch:normal;font-size:40px;line-height:125%;font-family:LKLUG;-inkscape-font-specification:LKLUG;letter-spacing:0px;word-spacing:0px;fill:#000000;fill-opacity:1;stroke:none;stroke-width:1px;stroke-linecap:butt;stroke-linejoin:miter;stroke-opacity:1"
       id="text4144">
      <path
         d="m 136.63997,847.53101 0,-13.24219 3.59375,0 0,13.10547 q 0,3.10547 1.21094,4.66797 1.21093,1.54296 3.63281,1.54296 2.91016,0 4.58984,-1.85546 1.69922,-1.85547 1.69922,-5.0586 l 0,-12.40234 3.59375,0 0,21.875 -3.59375,0 0,-3.35938 q -1.30859,1.99219 -3.04687,2.96875 -1.71875,0.95703 -4.00391,0.95703 -3.76953,0 -5.72266,-2.34375 -1.95312,-2.34375 -1.95312,-6.85546 z m 9.04297,-13.76954 0,0 z"
         style="fill:#ffffff"
         id="path4410" />
      <path
         d="m 178.61263,852.88257 0,11.60156 -3.61329,0 0,-30.19531 3.61329,0 0,3.32031 q 1.13281,-1.95312 2.85156,-2.89062 1.73828,-0.95704 4.14062,-0.95704 3.98438,0 6.46485,3.16407 2.5,3.16406 2.5,8.32031 0,5.15625 -2.5,8.32031 -2.48047,3.16406 -6.46485,3.16406 -2.40234,0 -4.14062,-0.9375 -1.71875,-0.95703 -2.85156,-2.91015 z m 12.22656,-7.63672 q 0,-3.96484 -1.64063,-6.21094 -1.62109,-2.26562 -4.47265,-2.26562 -2.85157,0 -4.49219,2.26562 -1.62109,2.2461 -1.62109,6.21094 0,3.96484 1.62109,6.23047 1.64062,2.24609 4.49219,2.24609 2.85156,0 4.47265,-2.24609 1.64063,-2.26563 1.64063,-6.23047 z"
         style=""
         id="path4412" />
      <path
         d="m 214.472,834.93335 0,3.39844 q -1.52344,-0.78125 -3.16406,-1.17188 -1.64063,-0.39062 -3.39844,-0.39062 -2.67578,0 -4.02344,0.82031 -1.32812,0.82031 -1.32812,2.46094 0,1.25 0.95703,1.97265 0.95703,0.70313 3.84766,1.34766 l 1.23046,0.27344 q 3.82813,0.82031 5.42969,2.32422 1.6211,1.48437 1.6211,4.16015 0,3.04688 -2.42188,4.82422 -2.40234,1.77734 -6.62109,1.77734 -1.75782,0 -3.67188,-0.35156 -1.89453,-0.33203 -4.0039,-1.01562 l 0,-3.71094 q 1.99218,1.03516 3.92578,1.5625 1.93359,0.50781 3.82812,0.50781 2.53906,0 3.90625,-0.85937 1.36719,-0.87891 1.36719,-2.46094 0,-1.46484 -0.99609,-2.24609 -0.97657,-0.78125 -4.31641,-1.50391 l -1.25,-0.29297 q -3.33984,-0.70312 -4.82422,-2.14844 -1.48437,-1.46484 -1.48437,-4.0039 0,-3.08594 2.1875,-4.76563 2.1875,-1.67969 6.21093,-1.67969 1.99219,0 3.75,0.29297 1.75782,0.29297 3.24219,0.87891 z"
         style=""
         id="path4414" />
      <path
         d="m 224.94075,828.07788 0,6.21094 7.40234,0 0,2.79297 -7.40234,0 0,11.875 q 0,2.67578 0.72266,3.4375 0.74218,0.76172 2.98828,0.76172 l 3.6914,0 0,3.00781 -3.6914,0 q -4.16016,0 -5.74219,-1.54297 -1.58203,-1.5625 -1.58203,-5.66406 l 0,-11.875 -2.63672,0 0,-2.79297 2.63672,0 0,-6.21094 3.61328,0 z"
         style=""
         id="path4416" />
      <path
         d="m 249.76497,837.64819 q -0.60547,-0.35156 -1.32813,-0.50781 -0.70312,-0.17578 -1.5625,-0.17578 -3.04687,0 -4.6875,1.99219 -1.62109,1.97265 -1.62109,5.68359 l 0,11.52344 -3.61328,0 0,-21.875 3.61328,0 0,3.39844 q 1.13281,-1.99219 2.94922,-2.94922 1.81641,-0.97657 4.41406,-0.97657 0.3711,0 0.82031,0.0586 0.44922,0.0391 0.9961,0.13672 l 0.0195,3.6914 z"
         style=""
         id="path4418" />
      <path
         d="m 271.42513,844.32788 0,1.75781 -16.52344,0 q 0.23437,3.71094 2.22656,5.66407 2.01172,1.93359 5.58594,1.93359 2.07031,0 4.0039,-0.50781 1.95313,-0.50782 3.86719,-1.52344 l 0,3.39844 q -1.93359,0.82031 -3.96484,1.25 -2.03125,0.42968 -4.1211,0.42968 -5.23437,0 -8.30078,-3.04687 -3.04687,-3.04688 -3.04687,-8.24219 0,-5.37109 2.89062,-8.51562 2.91016,-3.16407 7.83203,-3.16407 4.41407,0 6.97266,2.85157 2.57813,2.83203 2.57813,7.71484 z m -3.59375,-1.05469 q -0.0391,-2.94922 -1.66016,-4.70703 -1.60156,-1.75781 -4.25781,-1.75781 -3.00782,0 -4.82422,1.69922 -1.79688,1.69922 -2.07031,4.78515 l 12.8125,-0.0195 z"
         style=""
         id="path4420" />
      <path
         d="m 287.26497,845.16772 q -4.35547,0 -6.03516,0.9961 -1.67968,0.99609 -1.67968,3.39844 0,1.91406 1.25,3.04687 1.26953,1.11328 3.4375,1.11328 2.98828,0 4.78515,-2.10937 1.81641,-2.12891 1.81641,-5.64453 l 0,-0.80079 -3.57422,0 z m 7.16797,-1.48437 0,12.48047 -3.59375,0 0,-3.32031 q -1.23047,1.99218 -3.06641,2.94921 -1.83594,0.9375 -4.49219,0.9375 -3.35937,0 -5.35156,-1.875 -1.97265,-1.89453 -1.97265,-5.05859 0,-3.69141 2.46093,-5.56641 2.48047,-1.875 7.38282,-1.875 l 5.03906,0 0,-0.35156 q 0,-2.48047 -1.64063,-3.82812 -1.62109,-1.36719 -4.57031,-1.36719 -1.875,0 -3.65234,0.44922 -1.77735,0.44922 -3.41797,1.34765 l 0,-3.32031 q 1.97265,-0.76172 3.82812,-1.13281 1.85547,-0.39063 3.61328,-0.39063 4.7461,0 7.08985,2.46094 2.34375,2.46094 2.34375,7.46094 z"
         style=""
         id="path4422" />
      <path
         d="m 318.88606,838.48804 q 1.34766,-2.42188 3.22266,-3.57422 1.875,-1.15235 4.41406,-1.15235 3.41797,0 5.27344,2.40235 1.85547,2.38281 1.85547,6.79687 l 0,13.20313 -3.61328,0 0,-13.08594 q 0,-3.14453 -1.11328,-4.66797 -1.11329,-1.52344 -3.39844,-1.52344 -2.79297,0 -4.41406,1.85547 -1.6211,1.85547 -1.6211,5.0586 l 0,12.36328 -3.61328,0 0,-13.08594 q 0,-3.16406 -1.11328,-4.66797 -1.11328,-1.52344 -3.4375,-1.52344 -2.75391,0 -4.375,1.875 -1.62109,1.85547 -1.62109,5.03907 l 0,12.36328 -3.61329,0 0,-21.875 3.61329,0 0,3.39844 q 1.23046,-2.01172 2.94921,-2.96875 1.71875,-0.95704 4.08204,-0.95704 2.38281,0 4.04296,1.21094 1.67969,1.21094 2.48047,3.51563 z"
         style=""
         id="path4424" />
    </g>
    <g
       style="font-style:normal;font-variant:normal;font-weight:normal;font-stretch:normal;font-size:40px;line-height:125%;font-family:LKLUG;-inkscape-font-specification:LKLUG;letter-spacing:0px;word-spacing:0px;fill:#000000;fill-opacity:1;stroke:none;stroke-width:1px;stroke-linecap:butt;stroke-linejoin:miter;stroke-opacity:1"
       id="text4148">
      <path
         d="m 156.26608,906.70795 0,13.20312 -3.59375,0 0,-13.08594 q 0,-3.10546 -1.21093,-4.64843 -1.21094,-1.54297 -3.63282,-1.54297 -2.91015,0 -4.58984,1.85547 -1.67969,1.85547 -1.67969,5.05859 l 0,12.36328 -3.61328,0 0,-30.39062 3.61328,0 0,11.91406 q 1.28906,-1.97266 3.02735,-2.94922 1.75781,-0.97656 4.04296,-0.97656 3.76954,0 5.70313,2.34375 1.93359,2.32422 1.93359,6.85547 z"
         style="fill:#ffffff"
         id="path4427" />
      <path
         d="m 194.91843,908.07513 0,1.75782 -16.52344,0 q 0.23437,3.71093 2.22656,5.66406 2.01172,1.93359 5.58594,1.93359 2.07031,0 4.00391,-0.50781 1.95312,-0.50781 3.86718,-1.52344 l 0,3.39844 q -1.93359,0.82031 -3.96484,1.25 -2.03125,0.42969 -4.12109,0.42969 -5.23438,0 -8.30079,-3.04688 -3.04687,-3.04687 -3.04687,-8.24218 0,-5.3711 2.89062,-8.51563 2.91016,-3.16406 7.83204,-3.16406 4.41406,0 6.97265,2.85156 2.57813,2.83203 2.57813,7.71484 z m -3.59375,-1.05468 q -0.0391,-2.94922 -1.66016,-4.70703 -1.60156,-1.75782 -4.25781,-1.75782 -3.00781,0 -4.82422,1.69922 -1.79688,1.69922 -2.07031,4.78516 l 12.8125,-0.0195 z"
         style=""
         id="path4429" />
      <path
         d="m 213.49265,901.39545 q -0.60547,-0.35157 -1.32813,-0.50782 -0.70312,-0.17578 -1.5625,-0.17578 -3.04687,0 -4.6875,1.99219 -1.62109,1.97266 -1.62109,5.68359 l 0,11.52344 -3.61328,0 0,-21.875 3.61328,0 0,3.39844 q 1.13281,-1.99219 2.94922,-2.94922 1.8164,-0.97656 4.41406,-0.97656 0.37109,0 0.82031,0.0586 0.44922,0.0391 0.99609,0.13672 l 0.0195,3.69141 z"
         style=""
         id="path4431" />
      <path
         d="m 224.91843,900.5556 q -2.89063,0 -4.57032,2.26563 -1.67968,2.24609 -1.67968,6.17187 0,3.92578 1.66015,6.19141 1.67969,2.24609 4.58985,2.24609 2.87109,0 4.55078,-2.26562 1.67969,-2.26563 1.67969,-6.17188 0,-3.88672 -1.67969,-6.15234 -1.67969,-2.28516 -4.55078,-2.28516 z m 0,-3.04687 q 4.6875,0 7.36328,3.04687 2.67578,3.04688 2.67578,8.4375 0,5.3711 -2.67578,8.4375 -2.67578,3.04688 -7.36328,3.04688 -4.70703,0 -7.38282,-3.04688 -2.65625,-3.0664 -2.65625,-8.4375 0,-5.39062 2.65625,-8.4375 2.67579,-3.04687 7.38282,-3.04687 z"
         style=""
         id="path4433" />
      <path
         d="m 240.75827,889.52045 3.61328,0 0,17.94922 10.72266,-9.4336 4.58984,0 -11.60156,10.23438 12.08984,11.64062 -4.6875,0 -11.11328,-10.68359 0,10.68359 -3.61328,0 0,-30.39062 z"
         style=""
         id="path4435" />
      <path
         d="m 262.47702,911.27826 0,-13.24219 3.59375,0 0,13.10547 q 0,3.10547 1.21094,4.66797 1.21094,1.54297 3.63281,1.54297 2.91016,0 4.58984,-1.85547 1.69922,-1.85547 1.69922,-5.05859 l 0,-12.40235 3.59375,0 0,21.875 -3.59375,0 0,-3.35937 q -1.30859,1.99218 -3.04687,2.96875 -1.71875,0.95703 -4.00391,0.95703 -3.76953,0 -5.72265,-2.34375 -1.95313,-2.34375 -1.95313,-6.85547 z m 9.04297,-13.76953 0,0 z"
         style=""
         id="path4437" />
    </g>
    <path
       style="opacity:1;fill:#00d4aa;fill-opacity:1;stroke:none;stroke-width:6;stroke-linecap:round;stroke-linejoin:round;stroke-miterlimit:4;stroke-dasharray:none;stroke-opacity:1"
       d="m 132.63014,678.34467 148.91539,0 c 3.91739,0 7.07109,3.1537 7.07109,7.07109 l 0,36.36544 c 0,3.91738 -3.1537,7.07109 -7.07109,7.07109 l -148.91539,0 c -3.91738,0 -7.07109,-3.15371 -7.07109,-7.07109 l 0,-36.36544 c 0,-3.91739 3.15371,-7.07109 7.07109,-7.07109 z"
       id="rect4164" />
    <path
       style="opacity:1;fill:#d4002a;fill-opacity:1;stroke:none;stroke-width:6;stroke-linecap:round;stroke-linejoin:round;stroke-miterlimit:4;stroke-dasharray:none;stroke-opacity:1"
       d="m 308.64827,678.34467 136.24535,0 c 3.91738,0 7.07109,3.1537 7.07109,7.07109 l 0,36.36544 c 0,3.91738 -3.15371,7.07109 -7.07109,7.07109 l -136.24535,0 c -3.91738,0 -7.07109,-3.15371 -7.07109,-7.07109 l 0,-36.36544 c 0,-3.91739 3.15371,-7.07109 7.07109,-7.07109 z"
       id="rect4166" />
    <path
       style="opacity:1;fill:#d4002a;fill-opacity:1;stroke:none;stroke-width:6;stroke-linecap:round;stroke-linejoin:round;stroke-miterlimit:4;stroke-dasharray:none;stroke-opacity:1"
       d="m 385.09352,881.67682 26.01182,0 c 3.91738,0 7.07109,3.15371 7.07109,7.07109 l 0,36.36544 c 0,3.91739 -3.15371,7.07109 -7.07109,7.07109 l -26.01182,0 c -3.91738,0 -7.07109,-3.1537 -7.07109,-7.07109 l 0,-36.36544 c 0,-3.91738 3.15371,-7.07109 7.07109,-7.07109 z"
       id="rect4174" />
    <path
       style="opacity:1;fill:#d4002a;fill-opacity:1;stroke:none;stroke-width:6;stroke-linecap:round;stroke-linejoin:round;stroke-miterlimit:4;stroke-dasharray:none;stroke-opacity:1"
       d="m 385.09352,819.89111 26.01182,0 c 3.91738,0 7.07109,3.15371 7.07109,7.07109 l 0,36.36545 c 0,3.91738 -3.15371,7.07109 -7.07109,7.07109 l -26.01182,0 c -3.91738,0 -7.07109,-3.15371 -7.07109,-7.07109 l 0,-36.36545 c 0,-3.91738 3.15371,-7.07109 7.07109,-7.07109 z"
       id="rect4176" />
    <path
       style="opacity:1;fill:#d4002a;fill-opacity:1;stroke:none;stroke-width:6;stroke-linecap:round;stroke-linejoin:round;stroke-miterlimit:4;stroke-dasharray:none;stroke-opacity:1"
       d="m 385.09352,758.77686 26.01138,0 c 3.91739,0 7.07109,3.1537 7.07109,7.07109 l 0,36.36544 c 0,3.91738 -3.1537,7.07109 -7.07109,7.07109 l -26.01138,0 c -3.91738,0 -7.07109,-3.15371 -7.07109,-7.07109 l 0,-36.36544 c 0,-3.91739 3.15371,-7.07109 7.07109,-7.07109 z"
       id="rect4178" />
    <g
       style="font-style:normal;font-variant:normal;font-weight:normal;font-stretch:normal;font-size:40px;line-height:125%;font-family:LKLUG;-inkscape-font-specification:LKLUG;letter-spacing:0px;word-spacing:0px;fill:#000000;fill-opacity:1;stroke:none;stroke-width:1px;stroke-linecap:butt;stroke-linejoin:miter;stroke-opacity:1"
       id="text4180">
      <path
         d="m 398.71365,777.62634 q 1.34766,-2.42187 3.22266,-3.57422 1.875,-1.15234 4.41406,-1.15234 3.41797,0 5.27344,2.40234 1.85547,2.38282 1.85547,6.79688 l 0,13.20312 -3.61328,0 0,-13.08593 q 0,-3.14453 -1.11328,-4.66797 -1.11329,-1.52344 -3.39844,-1.52344 -2.79297,0 -4.41406,1.85547 -1.6211,1.85547 -1.6211,5.05859 l 0,12.36328 -3.61328,0 0,-13.08593 q 0,-3.16407 -1.11328,-4.66797 -1.11328,-1.52344 -3.4375,-1.52344 -2.75391,0 -4.375,1.875 -1.62109,1.85547 -1.62109,5.03906 l 0,12.36328 -3.61329,0 0,-21.875 3.61329,0 0,3.39844 q 1.23046,-2.01172 2.94921,-2.96875 1.71875,-0.95703 4.08204,-0.95703 2.38281,0 4.04296,1.21094 1.67969,1.21094 2.48047,3.51562 z"
         style="fill:#ffffff"
         id="path4445" />
      <path
         d="m 443.34256,784.30603 q -4.35547,0 -6.03516,0.99609 -1.67968,0.9961 -1.67968,3.39844 0,1.91406 1.25,3.04688 1.26953,1.11328 3.4375,1.11328 2.98828,0 4.78515,-2.10938 1.81641,-2.1289 1.81641,-5.64453 l 0,-0.80078 -3.57422,0 z m 7.16797,-1.48437 0,12.48046 -3.59375,0 0,-3.32031 q -1.23047,1.99219 -3.06641,2.94922 -1.83594,0.9375 -4.49219,0.9375 -3.35937,0 -5.35156,-1.875 -1.97265,-1.89453 -1.97265,-5.05859 0,-3.69141 2.46093,-5.56641 2.48047,-1.875 7.38282,-1.875 l 5.03906,0 0,-0.35156 q 0,-2.48047 -1.64063,-3.82813 -1.62109,-1.36718 -4.57031,-1.36718 -1.875,0 -3.65234,0.44921 -1.77735,0.44922 -3.41797,1.34766 l 0,-3.32031 q 1.97265,-0.76172 3.82812,-1.13281 1.85547,-0.39063 3.61328,-0.39063 4.7461,0 7.08985,2.46094 2.34375,2.46094 2.34375,7.46094 z"
         style=""
         id="path4447" />
      <path
         d="m 471.87772,774.07166 0,3.39843 q -1.52344,-0.78125 -3.16407,-1.17187 -1.64062,-0.39063 -3.39843,-0.39063 -2.67579,0 -4.02344,0.82032 -1.32813,0.82031 -1.32813,2.46093 0,1.25 0.95703,1.97266 0.95704,0.70312 3.84766,1.34766 l 1.23047,0.27343 q 3.82812,0.82032 5.42969,2.32422 1.62109,1.48438 1.62109,4.16016 0,3.04687 -2.42187,4.82422 -2.40235,1.77734 -6.6211,1.77734 -1.75781,0 -3.67187,-0.35156 -1.89453,-0.33203 -4.00391,-1.01563 l 0,-3.71093 q 1.99219,1.03515 3.92578,1.5625 1.9336,0.50781 3.82813,0.50781 2.53906,0 3.90625,-0.85938 1.36718,-0.8789 1.36718,-2.46093 0,-1.46485 -0.99609,-2.2461 -0.97656,-0.78125 -4.31641,-1.5039 l -1.25,-0.29297 q -3.33984,-0.70313 -4.82421,-2.14844 -1.48438,-1.46484 -1.48438,-4.00391 0,-3.08593 2.1875,-4.76562 2.1875,-1.67969 6.21094,-1.67969 1.99219,0 3.75,0.29297 1.75781,0.29297 3.24219,0.87891 z"
         style=""
         id="path4449" />
      <path
         d="m 482.34647,767.21619 0,6.21093 7.40234,0 0,2.79297 -7.40234,0 0,11.875 q 0,2.67578 0.72265,3.4375 0.74219,0.76172 2.98828,0.76172 l 3.69141,0 0,3.00781 -3.69141,0 q -4.16015,0 -5.74218,-1.54296 -1.58204,-1.5625 -1.58204,-5.66407 l 0,-11.875 -2.63671,0 0,-2.79297 2.63671,0 0,-6.21093 3.61329,0 z"
         style=""
         id="path4451" />
      <path
         d="m 513.20584,783.46619 0,1.75781 -16.52344,0 q 0.23438,3.71094 2.22657,5.66406 2.01171,1.9336 5.58593,1.9336 2.07032,0 4.00391,-0.50782 1.95312,-0.50781 3.86719,-1.52343 l 0,3.39843 q -1.9336,0.82032 -3.96485,1.25 -2.03125,0.42969 -4.12109,0.42969 -5.23438,0 -8.30078,-3.04687 -3.04688,-3.04688 -3.04688,-8.24219 0,-5.3711 2.89063,-8.51563 2.91015,-3.16406 7.83203,-3.16406 4.41406,0 6.97266,2.85156 2.57812,2.83203 2.57812,7.71485 z m -3.59375,-1.05469 q -0.0391,-2.94922 -1.66016,-4.70703 -1.60156,-1.75781 -4.25781,-1.75781 -3.00781,0 -4.82422,1.69921 -1.79687,1.69922 -2.07031,4.78516 l 12.8125,-0.0195 z"
         style=""
         id="path4453" />
      <path
         d="m 531.78006,776.7865 q -0.60547,-0.35156 -1.32813,-0.50781 -0.70312,-0.17578 -1.5625,-0.17578 -3.04687,0 -4.6875,1.99218 -1.62109,1.97266 -1.62109,5.6836 l 0,11.52343 -3.61328,0 0,-21.875 3.61328,0 0,3.39844 q 1.13281,-1.99219 2.94922,-2.94922 1.81641,-0.97656 4.41406,-0.97656 0.3711,0 0.82031,0.0586 0.44922,0.0391 0.9961,0.13672 l 0.0195,3.69141 z"
         style=""
         id="path4455" />
    </g>
    <g
       style="font-style:normal;font-variant:normal;font-weight:normal;font-stretch:normal;font-size:40px;line-height:125%;font-family:LKLUG;-inkscape-font-specification:LKLUG;letter-spacing:0px;word-spacing:0px;fill:#000000;fill-opacity:1;stroke:none;stroke-width:1px;stroke-linecap:butt;stroke-linejoin:miter;stroke-opacity:1"
       id="text4186">
      <path
         d="m 406.2326,827.52319 0,2.98828 -3.4375,0 q -1.93359,0 -2.69531,0.78125 -0.74219,0.78125 -0.74219,2.8125 l 0,1.9336 5.91797,0 0,2.79297 -5.91797,0 0,19.08203 -3.61328,0 0,-19.08203 -3.4375,0 0,-2.79297 3.4375,0 0,-1.52344 q 0,-3.65234 1.69922,-5.3125 1.69922,-1.67969 5.39063,-1.67969 l 3.39843,0 z"
         style="fill:#ffffff"
         id="path4458" />
    </g>
    <g
       style="font-style:normal;font-variant:normal;font-weight:normal;font-stretch:normal;font-size:40px;line-height:125%;font-family:LKLUG;-inkscape-font-specification:LKLUG;letter-spacing:0px;word-spacing:0px;fill:#000000;fill-opacity:1;stroke:none;stroke-width:1px;stroke-linecap:butt;stroke-linejoin:miter;stroke-opacity:1"
       id="text4192">
      <path
         d="m 406.6535,910.40741 q 0,-3.96484 -1.64062,-6.21094 -1.6211,-2.26562 -4.47266,-2.26562 -2.85156,0 -4.49219,2.26562 -1.62109,2.2461 -1.62109,6.21094 0,3.96484 1.62109,6.23047 1.64063,2.24609 4.49219,2.24609 2.85156,0 4.47266,-2.24609 1.64062,-2.26563 1.64062,-6.23047 z m -12.22656,-7.63672 q 1.13281,-1.95312 2.85156,-2.89062 1.73828,-0.95704 4.14063,-0.95704 3.98437,0 6.46484,3.16407 2.5,3.16406 2.5,8.32031 0,5.15625 -2.5,8.32031 -2.48047,3.16406 -6.46484,3.16406 -2.40235,0 -4.14063,-0.9375 -1.71875,-0.95703 -2.85156,-2.91015 l 0,3.28125 -3.61328,0 0,-30.39063 3.61328,0 0,11.83594 z"
         style="fill:#ffffff"
         id="path4461" />
      <path
         d="m 428.70428,912.69257 0,-13.24219 3.59375,0 0,13.10547 q 0,3.10547 1.21094,4.66797 1.21094,1.54296 3.63281,1.54296 2.91016,0 4.58985,-1.85546 1.69922,-1.85547 1.69922,-5.0586 l 0,-12.40234 3.59375,0 0,21.875 -3.59375,0 0,-3.35938 q -1.3086,1.99219 -3.04688,2.96875 -1.71875,0.95703 -4.0039,0.95703 -3.76954,0 -5.72266,-2.34375 -1.95313,-2.34375 -1.95313,-6.85546 z m 9.04297,-13.76954 0,0 z"
         style=""
         id="path4463" />
      <path
         d="m 468.86053,910.13397 q 0,-3.90625 -1.62109,-6.05469 -1.60156,-2.14843 -4.51172,-2.14843 -2.89062,0 -4.51172,2.14843 -1.60156,2.14844 -1.60156,6.05469 0,3.88672 1.60156,6.03516 1.6211,2.14844 4.51172,2.14844 2.91016,0 4.51172,-2.14844 1.62109,-2.14844 1.62109,-6.03516 z m 3.59375,8.47656 q 0,5.58594 -2.48046,8.30079 -2.48047,2.73437 -7.59766,2.73437 -1.89453,0 -3.57422,-0.29297 -1.67969,-0.27344 -3.26172,-0.85937 l 0,-3.4961 q 1.58203,0.85938 3.125,1.26953 1.54297,0.41016 3.14453,0.41016 3.53516,0 5.29297,-1.85547 1.75781,-1.83594 1.75781,-5.5664 l 0,-1.77735 q -1.11328,1.9336 -2.85156,2.89063 -1.73828,0.95703 -4.16015,0.95703 -4.02344,0 -6.48438,-3.06641 -2.46094,-3.0664 -2.46094,-8.125 0,-5.07812 2.46094,-8.14453 2.46094,-3.06641 6.48438,-3.06641 2.42187,0 4.16015,0.95704 1.73828,0.95703 2.85156,2.89062 l 0,-3.32031 3.59375,0 0,19.16015 z"
         style=""
         id="path4465" />
      <path
         d="m 497.53241,899.45038 0,21.875 -3.61328,0 0,-19.08203 -9.86328,0 0,19.08203 -3.61328,0 0,-19.08203 -3.4375,0 0,-2.79297 3.4375,0 0,-1.52344 q 0,-3.57422 1.67968,-5.27344 1.69922,-1.71875 5.19532,-1.71875 l 3.61328,0 0,2.98828 -3.4375,0 q -1.9336,0 -2.69532,0.78125 -0.74218,0.78125 -0.74218,2.8125 l 0,1.9336 13.47656,0 z m -3.61328,-8.47656 3.61328,0 0,4.55078 -3.61328,0 0,-4.55078 z"
         style=""
         id="path4467" />
      <path
         d="m 523.2746,899.45038 -7.91016,10.64453 8.32031,11.23047 -4.23828,0 -6.36719,-8.59375 -6.36718,8.59375 -4.23828,0 8.49609,-11.44531 -7.77344,-10.42969 4.23828,0 5.80078,7.79297 5.80079,-7.79297 4.23828,0 z"
         style=""
         id="path4469" />
    </g>
    <g
       style="font-style:normal;font-variant:normal;font-weight:normal;font-stretch:normal;font-size:40px;line-height:125%;font-family:LKLUG;-inkscape-font-specification:LKLUG;letter-spacing:0px;word-spacing:0px;fill:#ffffff;fill-opacity:1;stroke:none;stroke-width:1px;stroke-linecap:butt;stroke-linejoin:miter;stroke-opacity:1"
       id="text4204">
      <path
         d="m 149.81624,697.95978 q -0.60547,-0.35156 -1.32813,-0.50781 -0.70312,-0.17579 -1.5625,-0.17579 -3.04687,0 -4.6875,1.99219 -1.62109,1.97266 -1.62109,5.6836 l 0,11.52343 -3.61328,0 0,-21.875 3.61328,0 0,3.39844 q 1.13281,-1.99219 2.94922,-2.94922 1.8164,-0.97656 4.41406,-0.97656 0.37109,0 0.82031,0.0586 0.44922,0.0391 0.9961,0.13672 l 0.0195,3.69141 z"
         style=""
         id="path4472" />
      <path
         d="m 171.47639,704.63947 0,1.75781 -16.52343,0 q 0.23437,3.71094 2.22656,5.66406 2.01172,1.93359 5.58594,1.93359 2.07031,0 4.0039,-0.50781 1.95313,-0.50781 3.86719,-1.52344 l 0,3.39844 q -1.93359,0.82031 -3.96484,1.25 -2.03125,0.42969 -4.1211,0.42969 -5.23437,0 -8.30078,-3.04688 -3.04687,-3.04687 -3.04687,-8.24218 0,-5.3711 2.89062,-8.51563 2.91016,-3.16406 7.83203,-3.16406 4.41407,0 6.97266,2.85156 2.57812,2.83203 2.57812,7.71485 z m -3.59375,-1.05469 q -0.0391,-2.94922 -1.66015,-4.70703 -1.60156,-1.75782 -4.25781,-1.75782 -3.00782,0 -4.82422,1.69922 -1.79688,1.69922 -2.07032,4.78516 l 12.8125,-0.0195 z"
         style=""
         id="path4474" />
      <path
         d="m 194.40608,698.79962 q 1.34766,-2.42187 3.22266,-3.57422 1.875,-1.15234 4.41406,-1.15234 3.41797,0 5.27344,2.40234 1.85547,2.38282 1.85547,6.79688 l 0,13.20312 -3.61328,0 0,-13.08593 q 0,-3.14454 -1.11329,-4.66797 -1.11328,-1.52344 -3.39843,-1.52344 -2.79297,0 -4.41407,1.85547 -1.62109,1.85547 -1.62109,5.05859 l 0,12.36328 -3.61328,0 0,-13.08593 q 0,-3.16407 -1.11328,-4.66797 -1.11328,-1.52344 -3.4375,-1.52344 -2.75391,0 -4.375,1.875 -1.6211,1.85547 -1.6211,5.03906 l 0,12.36328 -3.61328,0 0,-21.875 3.61328,0 0,3.39844 q 1.23047,-2.01172 2.94922,-2.96875 1.71875,-0.95703 4.08203,-0.95703 2.38282,0 4.04297,1.21094 1.67969,1.21093 2.48047,3.51562 z"
         style=""
         id="path4476" />
      <path
         d="m 224.83577,697.11993 q -2.89063,0 -4.57031,2.26563 -1.67969,2.24609 -1.67969,6.17187 0,3.92579 1.66016,6.19141 1.67968,2.24609 4.58984,2.24609 2.87109,0 4.55078,-2.26562 1.67969,-2.26563 1.67969,-6.17188 0,-3.88671 -1.67969,-6.15234 -1.67969,-2.28516 -4.55078,-2.28516 z m 0,-3.04687 q 4.6875,0 7.36328,3.04687 2.67578,3.04688 2.67578,8.4375 0,5.3711 -2.67578,8.4375 -2.67578,3.04688 -7.36328,3.04688 -4.70703,0 -7.38281,-3.04688 -2.65625,-3.0664 -2.65625,-8.4375 0,-5.39062 2.65625,-8.4375 2.67578,-3.04687 7.38281,-3.04687 z"
         style=""
         id="path4478" />
      <path
         d="m 244.36702,688.38947 0,6.21093 7.40234,0 0,2.79297 -7.40234,0 0,11.875 q 0,2.67578 0.72266,3.4375 0.74218,0.76172 2.98828,0.76172 l 3.6914,0 0,3.00781 -3.6914,0 q -4.16016,0 -5.74219,-1.54297 -1.58203,-1.5625 -1.58203,-5.66406 l 0,-11.875 -2.63672,0 0,-2.79297 2.63672,0 0,-6.21093 3.61328,0 z"
         style=""
         id="path4480" />
      <path
         d="m 275.22639,704.63947 0,1.75781 -16.52343,0 q 0.23437,3.71094 2.22656,5.66406 2.01172,1.93359 5.58594,1.93359 2.07031,0 4.0039,-0.50781 1.95313,-0.50781 3.86719,-1.52344 l 0,3.39844 q -1.93359,0.82031 -3.96484,1.25 -2.03125,0.42969 -4.1211,0.42969 -5.23437,0 -8.30078,-3.04688 -3.04687,-3.04687 -3.04687,-8.24218 0,-5.3711 2.89062,-8.51563 2.91016,-3.16406 7.83203,-3.16406 4.41407,0 6.97266,2.85156 2.57812,2.83203 2.57812,7.71485 z m -3.59375,-1.05469 q -0.0391,-2.94922 -1.66015,-4.70703 -1.60156,-1.75782 -4.25781,-1.75782 -3.00782,0 -4.82422,1.69922 -1.79688,1.69922 -2.07032,4.78516 l 12.8125,-0.0195 z"
         style=""
         id="path4482" />
    </g>
    <g
       style="font-style:normal;font-variant:normal;font-weight:normal;font-stretch:normal;font-size:40px;line-height:125%;font-family:LKLUG;-inkscape-font-specification:LKLUG;letter-spacing:0px;word-spacing:0px;fill:#ffffff;fill-opacity:1;stroke:none;stroke-width:1px;stroke-linecap:butt;stroke-linejoin:miter;stroke-opacity:1"
       id="text4208">
      <path
         d="m 326.8436,705.55743 q 0,-3.96484 -1.64063,-6.21093 -1.62109,-2.26563 -4.47265,-2.26563 -2.85157,0 -4.49219,2.26563 -1.6211,2.24609 -1.6211,6.21093 0,3.96485 1.6211,6.23047 1.64062,2.2461 4.49219,2.2461 2.85156,0 4.47265,-2.2461 1.64063,-2.26562 1.64063,-6.23047 z m -12.22657,-7.63671 q 1.13282,-1.95313 2.85157,-2.89063 1.73828,-0.95703 4.14062,-0.95703 3.98438,0 6.46485,3.16406 2.5,3.16406 2.5,8.32031 0,5.15625 -2.5,8.32032 -2.48047,3.16406 -6.46485,3.16406 -2.40234,0 -4.14062,-0.9375 -1.71875,-0.95703 -2.85157,-2.91016 l 0,3.28125 -3.61328,0 0,-30.39062 3.61328,0 0,11.83594 z"
         style=""
         id="path4485" />
      <path
         d="m 349.20688,697.95978 q -0.60547,-0.35156 -1.32813,-0.50781 -0.70312,-0.17579 -1.5625,-0.17579 -3.04687,0 -4.6875,1.99219 -1.62109,1.97266 -1.62109,5.6836 l 0,11.52343 -3.61328,0 0,-21.875 3.61328,0 0,3.39844 q 1.13281,-1.99219 2.94922,-2.94922 1.8164,-0.97656 4.41406,-0.97656 0.37109,0 0.82031,0.0586 0.44922,0.0391 0.9961,0.13672 l 0.0195,3.69141 z"
         style=""
         id="path4487" />
      <path
         d="m 362.95688,705.47931 q -4.35547,0 -6.03516,0.99609 -1.67969,0.9961 -1.67969,3.39844 0,1.91406 1.25,3.04688 1.26954,1.11328 3.4375,1.11328 2.98829,0 4.78516,-2.10938 1.81641,-2.1289 1.81641,-5.64453 l 0,-0.80078 -3.57422,0 z m 7.16797,-1.48438 0,12.48047 -3.59375,0 0,-3.32031 q -1.23047,1.99219 -3.06641,2.94922 -1.83594,0.9375 -4.49219,0.9375 -3.35937,0 -5.35156,-1.875 -1.97266,-1.89453 -1.97266,-5.05859 0,-3.69141 2.46094,-5.56641 2.48047,-1.875 7.38281,-1.875 l 5.03907,0 0,-0.35156 q 0,-2.48047 -1.64063,-3.82813 -1.62109,-1.36719 -4.57031,-1.36719 -1.875,0 -3.65234,0.44922 -1.77735,0.44922 -3.41797,1.34766 l 0,-3.32031 q 1.97265,-0.76172 3.82812,-1.13282 1.85547,-0.39062 3.61328,-0.39062 4.7461,0 7.08985,2.46094 2.34375,2.46093 2.34375,7.46093 z"
         style=""
         id="path4489" />
      <path
         d="m 395.73032,703.27228 0,13.20312 -3.59375,0 0,-13.08593 q 0,-3.10547 -1.21094,-4.64844 -1.21094,-1.54297 -3.63281,-1.54297 -2.91016,0 -4.58985,1.85547 -1.67969,1.85547 -1.67969,5.05859 l 0,12.36328 -3.61328,0 0,-21.875 3.61328,0 0,3.39844 q 1.28907,-1.97266 3.02735,-2.94922 1.75781,-0.97656 4.04297,-0.97656 3.76953,0 5.70312,2.34375 1.9336,2.32422 1.9336,6.85547 z"
         style=""
         id="path4491" />
      <path
         d="m 418.67953,695.44025 0,3.35937 q -1.52343,-0.83984 -3.0664,-1.25 -1.52344,-0.42969 -3.08594,-0.42969 -3.49609,0 -5.42969,2.22657 -1.93359,2.20703 -1.93359,6.21093 0,4.00391 1.93359,6.23047 1.9336,2.20703 5.42969,2.20703 1.5625,0 3.08594,-0.41015 1.54297,-0.42969 3.0664,-1.26953 l 0,3.32031 q -1.5039,0.70312 -3.125,1.05469 -1.60156,0.35156 -3.41796,0.35156 -4.94141,0 -7.85157,-3.10547 -2.91015,-3.10547 -2.91015,-8.37891 0,-5.35156 2.92968,-8.41796 2.94922,-3.06641 8.06641,-3.06641 1.66016,0 3.24219,0.35156 1.58203,0.33203 3.0664,1.01563 z"
         style=""
         id="path4493" />
      <path
         d="m 443.15219,703.27228 0,13.20312 -3.59375,0 0,-13.08593 q 0,-3.10547 -1.21094,-4.64844 -1.21093,-1.54297 -3.63281,-1.54297 -2.91016,0 -4.58984,1.85547 -1.67969,1.85547 -1.67969,5.05859 l 0,12.36328 -3.61328,0 0,-30.39062 3.61328,0 0,11.91406 q 1.28906,-1.97266 3.02734,-2.94922 1.75782,-0.97656 4.04297,-0.97656 3.76953,0 5.70313,2.34375 1.93359,2.32422 1.93359,6.85547 z"
         style=""
         id="path4495" />
    </g>
    <g
       style="font-style:normal;font-variant:normal;font-weight:normal;font-stretch:normal;font-size:40px;line-height:125%;font-family:LKLUG;-inkscape-font-specification:LKLUG;letter-spacing:0px;word-spacing:0px;fill:#b3b3b3;fill-opacity:1;stroke:none;stroke-width:1px;stroke-linecap:butt;stroke-linejoin:miter;stroke-opacity:1"
       id="text4218">
      <path
         d="m 477.61548,703.91681 10.52734,0 0,3.20312 -10.52734,0 0,-3.20312 z"
         style="fill:#b3b3b3"
         id="path4498" />
      <path
         d="m 492.0686,703.91681 10.52735,0 0,3.20312 -10.52735,0 0,-3.20312 z"
         style="fill:#b3b3b3"
         id="path4500" />
      <path
         d="m 516.01392,686.08478 10,0 0,30.39062 -3.61329,0 0,-27.40234 -6.42578,0 q -1.93359,0 -2.69531,0.78125 -0.74219,0.78125 -0.74219,2.8125 l 0,1.93359 5.91797,0 0,2.79297 -5.91797,0 0,19.08203 -3.61328,0 0,-19.08203 -3.4375,0 0,-2.79297 3.4375,0 0,-1.52343 q 0,-3.65235 1.69922,-5.3125 1.69922,-1.67969 5.39063,-1.67969 z"
         style="fill:#b3b3b3"
         id="path4502" />
      <path
         d="m 543.51392,705.47931 q -4.35547,0 -6.03516,0.99609 -1.67969,0.9961 -1.67969,3.39844 0,1.91406 1.25,3.04688 1.26953,1.11328 3.4375,1.11328 2.98828,0 4.78516,-2.10938 1.8164,-2.1289 1.8164,-5.64453 l 0,-0.80078 -3.57421,0 z m 7.16796,-1.48438 0,12.48047 -3.59375,0 0,-3.32031 q -1.23046,1.99219 -3.0664,2.94922 -1.83594,0.9375 -4.49219,0.9375 -3.35937,0 -5.35156,-1.875 -1.97266,-1.89453 -1.97266,-5.05859 0,-3.69141 2.46094,-5.56641 2.48047,-1.875 7.38281,-1.875 l 5.03906,0 0,-0.35156 q 0,-2.48047 -1.64062,-3.82813 -1.62109,-1.36719 -4.57031,-1.36719 -1.875,0 -3.65235,0.44922 -1.77734,0.44922 -3.41797,1.34766 l 0,-3.32031 q 1.97266,-0.76172 3.82813,-1.13282 1.85547,-0.39062 3.61328,-0.39062 4.74609,0 7.08984,2.46094 2.34375,2.46093 2.34375,7.46093 z"
         style="fill:#b3b3b3"
         id="path4504" />
      <path
         d="m 572.49829,705.284 q 0,-3.90625 -1.62109,-6.05469 -1.60157,-2.14844 -4.51172,-2.14844 -2.89063,0 -4.51172,2.14844 -1.60156,2.14844 -1.60156,6.05469 0,3.88672 1.60156,6.03515 1.62109,2.14844 4.51172,2.14844 2.91015,0 4.51172,-2.14844 1.62109,-2.14843 1.62109,-6.03515 z m 3.59375,8.47656 q 0,5.58594 -2.48047,8.30078 -2.48047,2.73438 -7.59765,2.73438 -1.89454,0 -3.57422,-0.29297 -1.67969,-0.27344 -3.26172,-0.85938 l 0,-3.49609 q 1.58203,0.85937 3.125,1.26953 1.54297,0.41016 3.14453,0.41016 3.53516,0 5.29297,-1.85547 1.75781,-1.83594 1.75781,-5.56641 l 0,-1.77734 q -1.11328,1.93359 -2.85156,2.89062 -1.73828,0.95703 -4.16016,0.95703 -4.02344,0 -6.48437,-3.0664 -2.46094,-3.06641 -2.46094,-8.125 0,-5.07813 2.46094,-8.14453 2.46093,-3.06641 6.48437,-3.06641 2.42188,0 4.16016,0.95703 1.73828,0.95703 2.85156,2.89063 l 0,-3.32032 3.59375,0 0,19.16016 z"
         style="fill:#b3b3b3"
         id="path4506" />
    </g>
    <g
       style="font-style:normal;font-variant:normal;font-weight:normal;font-stretch:normal;font-size:40px;line-height:125%;font-family:LKLUG;-inkscape-font-specification:LKLUG;letter-spacing:0px;word-spacing:0px;fill:#000000;fill-opacity:1;stroke:none;stroke-width:1px;stroke-linecap:butt;stroke-linejoin:miter;stroke-opacity:1"
       id="text4222">
      <path
         d="m 448.65057,846.07788 0,1.75781 -16.52343,0 q 0.23437,3.71094 2.22656,5.66407 2.01172,1.93359 5.58594,1.93359 2.07031,0 4.0039,-0.50781 1.95313,-0.50782 3.86719,-1.52344 l 0,3.39844 q -1.93359,0.82031 -3.96484,1.25 -2.03125,0.42968 -4.1211,0.42968 -5.23437,0 -8.30078,-3.04687 -3.04687,-3.04688 -3.04687,-8.24219 0,-5.37109 2.89062,-8.51562 2.91016,-3.16407 7.83203,-3.16407 4.41406,0 6.97266,2.85157 2.57812,2.83203 2.57812,7.71484 z m -3.59375,-1.05469 q -0.0391,-2.94922 -1.66015,-4.70703 -1.60157,-1.75781 -4.25782,-1.75781 -3.00781,0 -4.82421,1.69922 -1.79688,1.69922 -2.07032,4.78515 l 12.8125,-0.0195 z"
         style=""
         id="path4509" />
      <path
         d="m 464.49042,846.91772 q -4.35547,0 -6.03516,0.9961 -1.67969,0.99609 -1.67969,3.39844 0,1.91406 1.25,3.04687 1.26953,1.11328 3.4375,1.11328 2.98828,0 4.78516,-2.10937 1.81641,-2.12891 1.81641,-5.64453 l 0,-0.80079 -3.57422,0 z m 7.16797,-1.48437 0,12.48047 -3.59375,0 0,-3.32031 q -1.23047,1.99218 -3.06641,2.94921 -1.83594,0.9375 -4.49219,0.9375 -3.35937,0 -5.35156,-1.875 -1.97266,-1.89453 -1.97266,-5.05859 0,-3.69141 2.46094,-5.56641 2.48047,-1.875 7.38281,-1.875 l 5.03907,0 0,-0.35156 q 0,-2.48047 -1.64063,-3.82812 -1.62109,-1.36719 -4.57031,-1.36719 -1.875,0 -3.65235,0.44922 -1.77734,0.44922 -3.41796,1.34765 l 0,-3.32031 q 1.97265,-0.76172 3.82812,-1.13281 1.85547,-0.39063 3.61328,-0.39063 4.7461,0 7.08985,2.46094 2.34375,2.46094 2.34375,7.46094 z"
         style=""
         id="path4511" />
      <path
         d="m 482.63495,829.82788 0,6.21094 7.40234,0 0,2.79297 -7.40234,0 0,11.875 q 0,2.67578 0.72265,3.4375 0.74219,0.76172 2.98829,0.76172 l 3.6914,0 0,3.00781 -3.6914,0 q -4.16016,0 -5.74219,-1.54297 -1.58203,-1.5625 -1.58203,-5.66406 l 0,-11.875 -2.63672,0 0,-2.79297 2.63672,0 0,-6.21094 3.61328,0 z"
         style=""
         id="path4513" />
      <path
         d="m 494.41229,849.28101 0,-13.24219 3.59375,0 0,13.10547 q 0,3.10547 1.21094,4.66797 1.21094,1.54296 3.63281,1.54296 2.91016,0 4.58985,-1.85546 1.69921,-1.85547 1.69921,-5.0586 l 0,-12.40234 3.59375,0 0,21.875 -3.59375,0 0,-3.35938 q -1.30859,1.99219 -3.04687,2.96875 -1.71875,0.95703 -4.00391,0.95703 -3.76953,0 -5.72265,-2.34375 -1.95313,-2.34375 -1.95313,-6.85546 z m 9.04297,-13.76954 0,0 z"
         style=""
         id="path4515" />
      <path
         d="m 532.84979,839.39819 q -0.60547,-0.35156 -1.32812,-0.50781 -0.70313,-0.17578 -1.5625,-0.17578 -3.04688,0 -4.6875,1.99219 -1.6211,1.97265 -1.6211,5.68359 l 0,11.52344 -3.61328,0 0,-21.875 3.61328,0 0,3.39844 q 1.13282,-1.99219 2.94922,-2.94922 1.81641,-0.97657 4.41406,-0.97657 0.3711,0 0.82032,0.0586 0.44922,0.0391 0.99609,0.13672 l 0.0195,3.6914 z"
         style=""
         id="path4517" />
      <path
         d="m 554.50995,846.07788 0,1.75781 -16.52344,0 q 0.23438,3.71094 2.22656,5.66407 2.01172,1.93359 5.58594,1.93359 2.07031,0 4.00391,-0.50781 1.95312,-0.50782 3.86718,-1.52344 l 0,3.39844 q -1.93359,0.82031 -3.96484,1.25 -2.03125,0.42968 -4.12109,0.42968 -5.23438,0 -8.30078,-3.04687 -3.04688,-3.04688 -3.04688,-8.24219 0,-5.37109 2.89063,-8.51562 2.91015,-3.16407 7.83203,-3.16407 4.41406,0 6.97265,2.85157 2.57813,2.83203 2.57813,7.71484 z m -3.59375,-1.05469 q -0.0391,-2.94922 -1.66016,-4.70703 -1.60156,-1.75781 -4.25781,-1.75781 -3.00781,0 -4.82422,1.69922 -1.79687,1.69922 -2.07031,4.78515 l 12.8125,-0.0195 z"
         style=""
         id="path4519" />
    </g>
    <g
       style="font-style:normal;font-variant:normal;font-weight:normal;font-stretch:normal;font-size:32.16018677px;line-height:125%;font-family:LKLUG;-inkscape-font-specification:LKLUG;letter-spacing:0px;word-spacing:0px;fill:#808080;fill-opacity:1;stroke:none;stroke-width:1px;stroke-linecap:butt;stroke-linejoin:miter;stroke-opacity:1"
       id="text4382">
      <path
         d="m 27.88831,1035.2457 -1.570321,0 -0.0157,-4.7267 q -1.648837,-0.031 -3.297675,-0.3768 -1.648838,-0.3612 -3.313379,-1.0679 l 0,-2.8265 q 1.601728,1.005 3.234863,1.5232 1.648838,0.5025 3.391895,0.5182 l 0,-7.1607 q -3.470411,-0.5653 -5.056436,-1.9158 -1.570322,-1.3504 -1.570322,-3.7059 0,-2.5597 1.711651,-4.0358 1.711651,-1.4761 4.915107,-1.6959 l 0,-3.6903 1.570321,0 0,3.6432 q 1.460399,0.063 2.826579,0.314 1.36618,0.2356 2.669547,0.6596 l 0,2.748 q -1.303367,-0.6595 -2.68525,-1.0207 -1.36618,-0.3611 -2.810876,-0.4239 l 0,6.7052 q 3.56463,0.5496 5.244874,1.9629 1.680245,1.4133 1.680245,3.863 0,2.6539 -1.790167,4.1928 -1.774463,1.5232 -5.134952,1.7587 l 0,4.7581 z m -1.570321,-16.8181 0,-6.4384 q -1.821573,0.2042 -2.77947,1.0365 -0.957896,0.8322 -0.957896,2.2141 0,1.3505 0.87938,2.1042 0.895084,0.7538 2.857986,1.0836 z m 1.570321,3.015 0,6.7995 q 1.994309,-0.267 2.999315,-1.1307 1.020709,-0.8636 1.020709,-2.2769 0,-1.3819 -0.9736,-2.1985 -0.957896,-0.8165 -3.046424,-1.1934 z"
         style=""
         id="path4522" />
      <path
         d="m 53.563068,1027.8809 0,9.3277 -2.905095,0 0,-24.2772 2.905095,0 0,2.6696 q 0.910787,-1.5703 2.29267,-2.3241 1.397586,-0.7694 3.329082,-0.7694 3.203456,0 5.197764,2.5439 2.010012,2.5439 2.010012,6.6895 0,4.1457 -2.010012,6.6896 -1.994308,2.5439 -5.197764,2.5439 -1.931496,0 -3.329082,-0.7537 -1.381883,-0.7695 -2.29267,-2.3398 z m 9.830214,-6.14 q 0,-3.1877 -1.319071,-4.9936 -1.303367,-1.8216 -3.596036,-1.8216 -2.29267,0 -3.61174,1.8216 -1.303367,1.8059 -1.303367,4.9936 0,3.1878 1.303367,5.0094 1.31907,1.8058 3.61174,1.8058 2.292669,0 3.596036,-1.8058 1.319071,-1.8216 1.319071,-5.0094 z"
         style=""
         id="path4524" />
      <path
         d="m 85.801769,1019.9037 0,10.6153 -2.889392,0 0,-10.5211 q 0,-2.4968 -0.973599,-3.7374 -0.9736,-1.2405 -2.920799,-1.2405 -2.339779,0 -3.690255,1.4918 -1.350477,1.4918 -1.350477,4.0671 l 0,9.9401 -2.905095,0 0,-24.4342 2.905095,0 0,9.579 q 1.036412,-1.586 2.433999,-2.3712 1.413289,-0.7851 3.250565,-0.7851 3.030721,0 4.585339,1.8843 1.554619,1.8687 1.554619,5.5119 z"
         style=""
         id="path4526" />
      <path
         d="m 108.64995,1014.9572 q -2.32408,0 -3.67455,1.8215 -1.35048,1.8059 -1.35048,4.9622 0,3.1564 1.33477,4.978 1.35048,1.8058 3.69026,1.8058 2.30837,0 3.65885,-1.8215 1.35048,-1.8216 1.35048,-4.9623 0,-3.1249 -1.35048,-4.9465 -1.35048,-1.8372 -3.65885,-1.8372 z m 0,-2.4497 q 3.76877,0 5.92011,2.4497 2.15134,2.4497 2.15134,6.7837 0,4.3184 -2.15134,6.7838 -2.15134,2.4497 -5.92011,2.4497 -3.78448,0 -5.93582,-2.4497 -2.13563,-2.4654 -2.13563,-6.7838 0,-4.334 2.13563,-6.7837 2.15134,-2.4497 5.93582,-2.4497 z"
         style=""
         id="path4528" />
      <path
         d="m 135.18839,1016.3076 q 1.08352,-1.9472 2.59103,-2.8737 1.50751,-0.9264 3.54893,-0.9264 2.74806,0 4.23987,1.9314 1.4918,1.9158 1.4918,5.4648 l 0,10.6153 -2.90509,0 0,-10.5211 q 0,-2.5282 -0.89509,-3.7531 -0.89508,-1.2248 -2.73236,-1.2248 -2.24556,0 -3.54892,1.4918 -1.30337,1.4918 -1.30337,4.0671 l 0,9.9401 -2.9051,0 0,-10.5211 q 0,-2.5439 -0.89508,-3.7531 -0.89508,-1.2248 -2.76377,-1.2248 -2.21415,0 -3.51752,1.5075 -1.30336,1.4918 -1.30336,4.0514 l 0,9.9401 -2.9051,0 0,-17.5876 2.9051,0 0,2.7324 q 0.9893,-1.6174 2.37118,-2.3869 1.38189,-0.7694 3.28198,-0.7694 1.91579,0 3.25056,0.9736 1.35048,0.9736 1.99431,2.8265 z"
         style=""
         id="path4530" />
      <path
         d="m 176.48784,1016.3704 -4.56964,0 -1.31907,5.2449 4.60105,0 1.28766,-5.2449 z m -2.35548,-8.9351 -1.63314,6.5168 4.58534,0 1.64884,-6.5168 2.51251,0 -1.61743,6.5168 4.89941,0 0,2.4183 -5.51183,0 -1.28767,5.2449 4.99363,0 0,2.4026 -5.60605,0 -1.63314,6.5011 -2.51251,0 1.61743,-6.5011 -4.60104,0 -1.61743,6.5011 -2.52822,0 1.63313,-6.5011 -4.94651,0 0,-2.4026 5.52753,0 1.31907,-5.2449 -5.05643,0 0,-2.4183 5.66886,0 1.60173,-6.5168 2.54392,0 z"
         style=""
         id="path4532" />
      <path
         d="m 211.83579,1021.5211 q 0,-3.1406 -1.30337,-4.868 -1.28766,-1.7274 -3.62744,-1.7274 -2.32408,0 -3.62744,1.7274 -1.28767,1.7274 -1.28767,4.868 0,3.1249 1.28767,4.8523 1.30336,1.7273 3.62744,1.7273 2.33978,0 3.62744,-1.7273 1.30337,-1.7274 1.30337,-4.8523 z m 2.88939,6.8152 q 0,4.4911 -1.99431,6.6739 -1.99431,2.1984 -6.10855,2.1984 -1.52321,0 -2.87369,-0.2355 -1.35047,-0.2199 -2.62243,-0.691 l 0,-2.8109 q 1.27196,0.691 2.51251,1.0208 1.24055,0.3297 2.52822,0.3297 2.84228,0 4.25557,-1.4918 1.41329,-1.4761 1.41329,-4.4754 l 0,-1.429 q -0.89508,1.5546 -2.29267,2.3241 -1.39759,0.7694 -3.34479,0.7694 -3.23486,0 -5.21346,-2.4654 -1.97861,-2.4654 -1.97861,-6.5325 0,-4.0828 1.97861,-6.5482 1.9786,-2.4654 5.21346,-2.4654 1.9472,0 3.34479,0.7694 1.39759,0.7695 2.29267,2.3241 l 0,-2.6696 2.88939,0 0,15.4049 z"
         style=""
         id="path4534" />
      <path
         d="m 220.67669,1012.9314 2.88939,0 0,17.5876 -2.88939,0 0,-17.5876 z m 0,-6.8466 2.88939,0 0,3.6589 -2.88939,0 0,-3.6589 z"
         style=""
         id="path4536" />
      <path
         d="m 232.45411,1007.9378 0,4.9936 5.95152,0 0,2.2456 -5.95152,0 0,9.5476 q 0,2.1513 0.58102,2.7637 0.59672,0.6124 2.40259,0.6124 l 2.96791,0 0,2.4183 -2.96791,0 q -3.34479,0 -4.61675,-1.2405 -1.27196,-1.2563 -1.27196,-4.5539 l 0,-9.5476 -2.11993,0 0,-2.2456 2.11993,0 0,-4.9936 2.9051,0 z"
         style=""
         id="path4538" />
      <path
         d="m 255.25517,1027.8809 0,9.3277 -2.90509,0 0,-24.2772 2.90509,0 0,2.6696 q 0.91079,-1.5703 2.29267,-2.3241 1.39759,-0.7694 3.32908,-0.7694 3.20346,0 5.19777,2.5439 2.01001,2.5439 2.01001,6.6895 0,4.1457 -2.01001,6.6896 -1.99431,2.5439 -5.19777,2.5439 -1.93149,0 -3.32908,-0.7537 -1.38188,-0.7695 -2.29267,-2.3398 z m 9.83021,-6.14 q 0,-3.1877 -1.31907,-4.9936 -1.30336,-1.8216 -3.59603,-1.8216 -2.29267,0 -3.61174,1.8216 -1.30337,1.8059 -1.30337,4.9936 0,3.1878 1.30337,5.0094 1.31907,1.8058 3.61174,1.8058 2.29267,0 3.59603,-1.8058 1.31907,-1.8216 1.31907,-5.0094 z"
         style=""
         id="path4540" />
      <path
         d="m 272.57582,1023.5782 0,-10.6468 2.88939,0 0,10.5369 q 0,2.4968 0.9736,3.7531 0.9736,1.2405 2.9208,1.2405 2.33978,0 3.69026,-1.4918 1.36618,-1.4918 1.36618,-4.0671 l 0,-9.9716 2.88939,0 0,17.5876 -2.88939,0 0,-2.7009 q -1.05212,1.6017 -2.44971,2.3869 -1.38188,0.7694 -3.21915,0.7694 -3.03073,0 -4.60105,-1.8843 -1.57032,-1.8844 -1.57032,-5.5119 z m 7.27059,-11.0707 0,0 z"
         style=""
         id="path4542" />
      <path
         d="m 304.50046,1013.4496 0,2.7324 q -1.22485,-0.6281 -2.54392,-0.9422 -1.31907,-0.3141 -2.73236,-0.3141 -2.15134,0 -3.23486,0.6596 -1.06782,0.6595 -1.06782,1.9786 0,1.005 0.76946,1.586 0.76946,0.5653 3.09353,1.0835 l 0.98931,0.2199 q 3.07783,0.6595 4.36549,1.8687 1.30337,1.1934 1.30337,3.3447 0,2.4498 -1.9472,3.8787 -1.9315,1.429 -5.32339,1.429 -1.41329,0 -2.95221,-0.2826 -1.52321,-0.267 -3.21916,-0.8166 l 0,-2.9836 q 1.60173,0.8323 3.15635,1.2563 1.55462,0.4082 3.07783,0.4082 2.04142,0 3.14064,-0.6909 1.09923,-0.7066 1.09923,-1.9786 0,-1.1777 -0.80087,-1.8059 -0.78516,-0.6281 -3.47041,-1.2091 l -1.005,-0.2356 q -2.68525,-0.5653 -3.8787,-1.7273 -1.19344,-1.1778 -1.19344,-3.2192 0,-2.4811 1.75876,-3.8316 1.75876,-1.3504 4.99362,-1.3504 1.60173,0 3.01502,0.2355 1.41329,0.2356 2.60673,0.7066 z"
         style=""
         id="path4544" />
      <path
         d="m 324.67909,1019.9037 0,10.6153 -2.88939,0 0,-10.5211 q 0,-2.4968 -0.9736,-3.7374 -0.9736,-1.2405 -2.9208,-1.2405 -2.33978,0 -3.69026,1.4918 -1.35047,1.4918 -1.35047,4.0671 l 0,9.9401 -2.9051,0 0,-24.4342 2.9051,0 0,9.579 q 1.03641,-1.586 2.43399,-2.3712 1.41329,-0.7851 3.25057,-0.7851 3.03072,0 4.58534,1.8843 1.55462,1.8687 1.55462,5.5119 z"
         style=""
         id="path4546" />
      <path
         d="m 347.52727,1014.9572 q -2.32408,0 -3.67455,1.8215 -1.35048,1.8059 -1.35048,4.9622 0,3.1564 1.33477,4.978 1.35048,1.8058 3.69026,1.8058 2.30837,0 3.65885,-1.8215 1.35048,-1.8216 1.35048,-4.9623 0,-3.1249 -1.35048,-4.9465 -1.35048,-1.8372 -3.65885,-1.8372 z m 0,-2.4497 q 3.76877,0 5.92011,2.4497 2.15134,2.4497 2.15134,6.7837 0,4.3184 -2.15134,6.7838 -2.15134,2.4497 -5.92011,2.4497 -3.78448,0 -5.93582,-2.4497 -2.13563,-2.4654 -2.13563,-6.7838 0,-4.334 2.13563,-6.7837 2.15134,-2.4497 5.93582,-2.4497 z"
         style=""
         id="path4548" />
      <path
         d="m 370.56389,1015.6324 q -0.4868,-0.2827 -1.06782,-0.4083 -0.56531,-0.1413 -1.25625,-0.1413 -2.44971,0 -3.76878,1.6017 -1.30336,1.586 -1.30336,4.5696 l 0,9.2649 -2.9051,0 0,-17.5876 2.9051,0 0,2.7324 q 0.91078,-1.6017 2.37118,-2.3712 1.4604,-0.7851 3.54893,-0.7851 0.29836,0 0.65953,0.047 0.36118,0.031 0.80087,0.1099 l 0.0157,2.9679 z"
         style=""
         id="path4550" />
      <path
         d="m 373.62601,1012.9314 2.8894,0 0,17.5876 -2.8894,0 0,-17.5876 z m 0,-6.8466 2.8894,0 0,3.6589 -2.8894,0 0,-3.6589 z"
         style=""
         id="path4552" />
      <path
         d="m 394.11872,1021.5211 q 0,-3.1406 -1.30337,-4.868 -1.28766,-1.7274 -3.62744,-1.7274 -2.32408,0 -3.62745,1.7274 -1.28766,1.7274 -1.28766,4.868 0,3.1249 1.28766,4.8523 1.30337,1.7273 3.62745,1.7273 2.33978,0 3.62744,-1.7273 1.30337,-1.7274 1.30337,-4.8523 z m 2.88939,6.8152 q 0,4.4911 -1.99431,6.6739 -1.99431,2.1984 -6.10855,2.1984 -1.52321,0 -2.87369,-0.2355 -1.35048,-0.2199 -2.62244,-0.691 l 0,-2.8109 q 1.27196,0.691 2.51252,1.0208 1.24055,0.3297 2.52822,0.3297 2.84228,0 4.25557,-1.4918 1.41329,-1.4761 1.41329,-4.4754 l 0,-1.429 q -0.89509,1.5546 -2.29267,2.3241 -1.39759,0.7694 -3.34479,0.7694 -3.23486,0 -5.21346,-2.4654 -1.97861,-2.4654 -1.97861,-6.5325 0,-4.0828 1.97861,-6.5482 1.9786,-2.4654 5.21346,-2.4654 1.9472,0 3.34479,0.7694 1.39758,0.7695 2.29267,2.3241 l 0,-2.6696 2.88939,0 0,15.4049 z"
         style=""
         id="path4554" />
      <path
         d="m 402.95963,1012.9314 2.88939,0 0,17.5876 -2.88939,0 0,-17.5876 z m 0,-6.8466 2.88939,0 0,3.6589 -2.88939,0 0,-3.6589 z"
         style=""
         id="path4556" />
      <path
         d="m 426.49876,1019.9037 0,10.6153 -2.88939,0 0,-10.5211 q 0,-2.4968 -0.9736,-3.7374 -0.9736,-1.2405 -2.9208,-1.2405 -2.33978,0 -3.69026,1.4918 -1.35047,1.4918 -1.35047,4.0671 l 0,9.9401 -2.9051,0 0,-17.5876 2.9051,0 0,2.7324 q 1.03641,-1.586 2.434,-2.3712 1.41329,-0.7851 3.25056,-0.7851 3.03072,0 4.58534,1.8843 1.55462,1.8687 1.55462,5.5119 z"
         style=""
         id="path4558" />
      <path
         d="m 456.22495,1016.3076 q 1.08352,-1.9472 2.59103,-2.8737 1.50751,-0.9264 3.54893,-0.9264 2.74806,0 4.23987,1.9314 1.4918,1.9158 1.4918,5.4648 l 0,10.6153 -2.90509,0 0,-10.5211 q 0,-2.5282 -0.89509,-3.7531 -0.89508,-1.2248 -2.73236,-1.2248 -2.24556,0 -3.54892,1.4918 -1.30337,1.4918 -1.30337,4.0671 l 0,9.9401 -2.9051,0 0,-10.5211 q 0,-2.5439 -0.89508,-3.7531 -0.89508,-1.2248 -2.76377,-1.2248 -2.21415,0 -3.51752,1.5075 -1.30336,1.4918 -1.30336,4.0514 l 0,9.9401 -2.9051,0 0,-17.5876 2.9051,0 0,2.7324 q 0.9893,-1.6174 2.37118,-2.3869 1.38189,-0.7694 3.28198,-0.7694 1.91579,0 3.25056,0.9736 1.35048,0.9736 1.99431,2.8265 z"
         style=""
         id="path4560" />
      <path
         d="m 481.86828,1021.6781 q -3.50182,0 -4.85229,0.8009 -1.35048,0.8009 -1.35048,2.7324 0,1.5389 1.005,2.4497 1.02071,0.895 2.76377,0.895 2.40259,0 3.84729,-1.6959 1.4604,-1.7117 1.4604,-4.5382 l 0,-0.6439 -2.87369,0 z m 5.76308,-1.1934 0,10.0343 -2.88939,0 0,-2.6695 q -0.9893,1.6017 -2.46541,2.3712 -1.4761,0.7537 -3.61174,0.7537 -2.70095,0 -4.30268,-1.5075 -1.58602,-1.5232 -1.58602,-4.0671 0,-2.9679 1.9786,-4.4754 1.99431,-1.5075 5.93582,-1.5075 l 4.05143,0 0,-0.2827 q 0,-1.9943 -1.31907,-3.0778 -1.30337,-1.0992 -3.67455,-1.0992 -1.50751,0 -2.93651,0.3611 -1.42899,0.3612 -2.74806,1.0836 l 0,-2.6696 q 1.58603,-0.6124 3.07783,-0.9108 1.49181,-0.314 2.9051,-0.314 3.81588,0 5.70026,1.9786 1.88439,1.9786 1.88439,5.9986 z"
         style=""
         id="path4562" />
      <path
         d="m 504.81067,1013.4496 0,2.7324 q -1.22485,-0.6281 -2.54392,-0.9422 -1.31907,-0.3141 -2.73236,-0.3141 -2.15134,0 -3.23486,0.6596 -1.06782,0.6595 -1.06782,1.9786 0,1.005 0.76946,1.586 0.76946,0.5653 3.09353,1.0835 l 0.98931,0.2199 q 3.07783,0.6595 4.36549,1.8687 1.30337,1.1934 1.30337,3.3447 0,2.4498 -1.9472,3.8787 -1.9315,1.429 -5.32339,1.429 -1.41329,0 -2.95221,-0.2826 -1.52321,-0.267 -3.21916,-0.8166 l 0,-2.9836 q 1.60173,0.8323 3.15635,1.2563 1.55462,0.4082 3.07783,0.4082 2.04142,0 3.14064,-0.6909 1.09923,-0.7066 1.09923,-1.9786 0,-1.1777 -0.80086,-1.8059 -0.78516,-0.6281 -3.47041,-1.2091 l -1.00501,-0.2356 q -2.68525,-0.5653 -3.8787,-1.7273 -1.19344,-1.1778 -1.19344,-3.2192 0,-2.4811 1.75876,-3.8316 1.75876,-1.3504 4.99362,-1.3504 1.60173,0 3.01502,0.2355 1.41329,0.2356 2.60673,0.7066 z"
         style=""
         id="path4564" />
      <path
         d="m 513.22762,1007.9378 0,4.9936 5.95152,0 0,2.2456 -5.95152,0 0,9.5476 q 0,2.1513 0.58102,2.7637 0.59672,0.6124 2.40259,0.6124 l 2.96791,0 0,2.4183 -2.96791,0 q -3.34478,0 -4.61674,-1.2405 -1.27196,-1.2563 -1.27196,-4.5539 l 0,-9.5476 -2.11994,0 0,-2.2456 2.11994,0 0,-4.9936 2.90509,0 z"
         style=""
         id="path4566" />
      <path
         d="m 538.03868,1021.0029 0,1.4133 -13.28492,0 q 0.18844,2.9836 1.79017,4.5539 1.61743,1.5546 4.49112,1.5546 1.66454,0 3.21916,-0.4082 1.57032,-0.4083 3.10923,-1.2249 l 0,2.7324 q -1.55461,0.6595 -3.18775,1.005 -1.63313,0.3454 -3.31338,0.3454 -4.20846,0 -6.67386,-2.4497 -2.44971,-2.4497 -2.44971,-6.6267 0,-4.3184 2.32408,-6.8466 2.33978,-2.5439 6.29699,-2.5439 3.54893,0 5.60605,2.2926 2.07282,2.277 2.07282,6.2028 z m -2.88939,-0.848 q -0.0314,-2.3712 -1.33477,-3.7845 -1.28767,-1.4132 -3.4233,-1.4132 -2.4183,0 -3.8787,1.3661 -1.44469,1.3662 -1.66454,3.8473 l 10.30131,-0.016 z"
         style=""
         id="path4568" />
      <path
         d="m 552.97243,1015.6324 q -0.4868,-0.2827 -1.06782,-0.4083 -0.56531,-0.1413 -1.25626,-0.1413 -2.4497,0 -3.76877,1.6017 -1.30336,1.586 -1.30336,4.5696 l 0,9.2649 -2.9051,0 0,-17.5876 2.9051,0 0,2.7324 q 0.91078,-1.6017 2.37118,-2.3712 1.4604,-0.7851 3.54893,-0.7851 0.29836,0 0.65953,0.047 0.36118,0.031 0.80087,0.1099 l 0.0157,2.9679 z"
         style=""
         id="path4570" />
    </g>
  </g>
</svg>
