<?xml version="1.0" encoding="UTF-8" standalone="no"?>
<!-- Created with Inkscape (http://www.inkscape.org/) -->

<svg
   xmlns:dc="http://purl.org/dc/elements/1.1/"
   xmlns:cc="http://creativecommons.org/ns#"
   xmlns:rdf="http://www.w3.org/1999/02/22-rdf-syntax-ns#"
   xmlns:svg="http://www.w3.org/2000/svg"
   xmlns="http://www.w3.org/2000/svg"
   xmlns:sodipodi="http://sodipodi.sourceforge.net/DTD/sodipodi-0.dtd"
   xmlns:inkscape="http://www.inkscape.org/namespaces/inkscape"
   width="600"
   height="300"
   viewBox="0 0 600.00001 300.00001"
   id="svg2"
   version="1.1"
   inkscape:version="0.91 r"
   sodipodi:docname="intro.svg">
  <defs
     id="defs4" />
  <sodipodi:namedview
     id="base"
     pagecolor="#ffffff"
     bordercolor="#666666"
     borderopacity="1.0"
     inkscape:pageopacity="0.0"
     inkscape:pageshadow="2"
     inkscape:zoom="1"
     inkscape:cx="307.27658"
     inkscape:cy="271.74615"
     inkscape:document-units="px"
     inkscape:current-layer="layer1"
     showgrid="false"
     units="px"
     inkscape:window-width="1920"
     inkscape:window-height="1004"
     inkscape:window-x="1920"
     inkscape:window-y="25"
     inkscape:window-maximized="1" />
  <metadata
     id="metadata7">
    <rdf:RDF>
      <cc:Work
         rdf:about="">
        <dc:format>image/svg+xml</dc:format>
        <dc:type
           rdf:resource="http://purl.org/dc/dcmitype/StillImage" />
        <dc:title></dc:title>
      </cc:Work>
    </rdf:RDF>
  </metadata>
  <g
     inkscape:label="Layer 1"
     inkscape:groupmode="layer"
     id="layer1"
     transform="translate(0,-752.36216)">
    <path
       style="opacity:1;fill:#00d4aa;fill-opacity:1;stroke:none;stroke-width:6;stroke-linecap:round;stroke-linejoin:round;stroke-miterlimit:4;stroke-dasharray:none;stroke-opacity:1"
       d="m 133.30781,980.67682 26.01182,0 c 3.91738,0 7.07109,3.15371 7.07109,7.07109 l 0,36.36549 c 0,3.9173 -3.15371,7.071 -7.07109,7.071 l -26.01182,0 c -3.91739,0 -7.07109,-3.1537 -7.07109,-7.071 l 0,-36.36549 c 0,-3.91738 3.1537,-7.07109 7.07109,-7.07109 z"
       id="rect4156" />
    <path
       style="opacity:1;fill:#00d4aa;fill-opacity:1;stroke:none;stroke-width:6;stroke-linecap:round;stroke-linejoin:round;stroke-miterlimit:4;stroke-dasharray:none;stroke-opacity:1"
       d="m 133.30781,918.89111 26.01182,0 c 3.91738,0 7.07109,3.15371 7.07109,7.07109 l 0,36.36545 c 0,3.91738 -3.15371,7.07109 -7.07109,7.07109 l -26.01182,0 c -3.91739,0 -7.07109,-3.15371 -7.07109,-7.07109 l 0,-36.36545 c 0,-3.91738 3.1537,-7.07109 7.07109,-7.07109 z"
       id="rect4154" />
    <path
       style="opacity:1;fill:#00d4aa;fill-opacity:1;stroke:none;stroke-width:6;stroke-linecap:round;stroke-linejoin:round;stroke-miterlimit:4;stroke-dasharray:none;stroke-opacity:1"
       d="m 133.30781,857.77686 26.01182,0 c 3.91738,0 7.07109,3.1537 7.07109,7.07109 l 0,36.36544 c 0,3.91738 -3.15371,7.07109 -7.07109,7.07109 l -26.01182,0 c -3.91739,0 -7.07109,-3.15371 -7.07109,-7.07109 l 0,-36.36544 c 0,-3.91739 3.1537,-7.07109 7.07109,-7.07109 z"
       id="rect4152" />
    <g
       style="font-style:normal;font-variant:normal;font-weight:normal;font-stretch:normal;font-size:40px;line-height:125%;font-family:LKLUG;-inkscape-font-specification:LKLUG;letter-spacing:0px;word-spacing:0px;fill:#000000;fill-opacity:1;stroke:none;stroke-width:1px;stroke-linecap:butt;stroke-linejoin:miter;stroke-opacity:1"
       id="text4136">
      <path
         d="m 29.886543,821.35431 -1.953125,0 -0.01953,-5.87891 q -2.050781,-0.0391 -4.101562,-0.46875 -2.050782,-0.44922 -4.121094,-1.32812 l 0,-3.51563 q 1.992187,1.25 4.023437,1.89453 2.050782,0.625 4.21875,0.64454 l 0,-8.90625 q -4.316406,-0.70313 -6.289062,-2.38282 -1.953125,-1.67968 -1.953125,-4.60937 0,-3.1836 2.128906,-5.01953 2.128906,-1.83594 6.113281,-2.10938 l 0,-4.58984 1.953125,0 0,4.53125 q 1.816407,0.0781 3.515625,0.39062 1.699219,0.29297 3.320313,0.82032 l 0,3.41796 q -1.621094,-0.82031 -3.339844,-1.26953 -1.699219,-0.44922 -3.496094,-0.52734 l 0,8.33984 q 4.433594,0.6836 6.523438,2.44141 2.089844,1.75781 2.089844,4.80469 0,3.30078 -2.226563,5.21484 -2.207031,1.89453 -6.386719,2.1875 l 0,5.91797 z m -1.953125,-20.91797 0,-8.00781 q -2.265625,0.2539 -3.457031,1.28906 -1.191406,1.03516 -1.191406,2.75391 0,1.67968 1.09375,2.61718 1.113281,0.9375 3.554687,1.34766 z m 1.953125,3.75 0,8.45703 q 2.480469,-0.33203 3.730469,-1.40625 1.269531,-1.07422 1.269531,-2.83203 0,-1.71875 -1.210937,-2.73437 -1.191406,-1.01563 -3.789063,-1.48438 z"
         style=""
         id="path4251" />
      <path
         d="m 61.820137,812.19415 0,11.60157 -3.613281,0 0,-30.19532 3.613281,0 0,3.32032 q 1.132813,-1.95313 2.851563,-2.89063 1.738281,-0.95703 4.140625,-0.95703 3.984375,0 6.464843,3.16406 2.5,3.16406 2.5,8.32031 0,5.15625 -2.5,8.32032 -2.480468,3.16406 -6.464843,3.16406 -2.402344,0 -4.140625,-0.9375 -1.71875,-0.95703 -2.851563,-2.91016 z M 74.0467,804.55743 q 0,-3.96484 -1.640625,-6.21093 -1.621094,-2.26563 -4.472657,-2.26563 -2.851562,0 -4.492187,2.26563 -1.621094,2.24609 -1.621094,6.21093 0,3.96485 1.621094,6.23047 1.640625,2.2461 4.492187,2.2461 2.851563,0 4.472657,-2.2461 1.640625,-2.26562 1.640625,-6.23047 z"
         style=""
         id="path4253" />
      <path
         d="m 101.91779,802.27228 0,13.20312 -3.593747,0 0,-13.08593 q 0,-3.10547 -1.210937,-4.64844 -1.210938,-1.54297 -3.632813,-1.54297 -2.910156,0 -4.589843,1.85547 -1.679688,1.85547 -1.679688,5.05859 l 0,12.36328 -3.613281,0 0,-30.39062 3.613281,0 0,11.91406 q 1.289063,-1.97266 3.027344,-2.94922 1.757812,-0.97656 4.042969,-0.97656 3.769531,0 5.703125,2.34375 1.93359,2.32422 1.93359,6.85547 z"
         style=""
         id="path4255" />
    </g>
    <g
       style="font-style:normal;font-variant:normal;font-weight:normal;font-stretch:normal;font-size:40px;line-height:125%;font-family:LKLUG;-inkscape-font-specification:LKLUG;letter-spacing:0px;word-spacing:0px;fill:#000000;fill-opacity:1;stroke:none;stroke-width:1px;stroke-linecap:butt;stroke-linejoin:miter;stroke-opacity:1"
       id="text4140">
      <path
         d="m 145.48763,874.94666 q -2.89063,0 -4.57032,2.26562 -1.67968,2.24609 -1.67968,6.17188 0,3.92578 1.66015,6.1914 1.67969,2.2461 4.58985,2.2461 2.87109,0 4.55078,-2.26563 1.67968,-2.26562 1.67968,-6.17187 0,-3.88672 -1.67968,-6.15235 -1.67969,-2.28515 -4.55078,-2.28515 z m 0,-3.04688 q 4.6875,0 7.36328,3.04688 2.67578,3.04687 2.67578,8.4375 0,5.37109 -2.67578,8.4375 -2.67578,3.04687 -7.36328,3.04687 -4.70704,0 -7.38282,-3.04687 -2.65625,-3.06641 -2.65625,-8.4375 0,-5.39063 2.65625,-8.4375 2.67578,-3.04688 7.38282,-3.04688 z"
         style="fill:#ffffff"
         id="path4258" />
      <path
         d="m 186.87434,875.7865 q -0.60546,-0.35156 -1.32812,-0.50781 -0.70313,-0.17578 -1.5625,-0.17578 -3.04688,0 -4.6875,1.99218 -1.62109,1.97266 -1.62109,5.6836 l 0,11.52343 -3.61329,0 0,-21.875 3.61329,0 0,3.39844 q 1.13281,-1.99219 2.94921,-2.94922 1.81641,-0.97656 4.41407,-0.97656 0.37109,0 0.82031,0.0586 0.44922,0.0391 0.99609,0.13672 l 0.0195,3.69141 z"
         style=""
         id="path4260" />
      <path
         d="m 190.68294,872.42712 3.59375,0 0,21.875 -3.59375,0 0,-21.875 z m 0,-8.51562 3.59375,0 0,4.55078 -3.59375,0 0,-4.55078 z"
         style=""
         id="path4262" />
      <path
         d="m 216.17122,883.11072 q 0,-3.90625 -1.62109,-6.05469 -1.60157,-2.14844 -4.51172,-2.14844 -2.89063,0 -4.51172,2.14844 -1.60156,2.14844 -1.60156,6.05469 0,3.88672 1.60156,6.03515 1.62109,2.14844 4.51172,2.14844 2.91015,0 4.51172,-2.14844 1.62109,-2.14843 1.62109,-6.03515 z m 3.59375,8.47656 q 0,5.58594 -2.48047,8.30078 -2.48047,2.73438 -7.59766,2.73438 -1.89453,0 -3.57421,-0.29297 -1.67969,-0.27344 -3.26172,-0.85938 l 0,-3.49609 q 1.58203,0.85937 3.125,1.26953 1.54297,0.41016 3.14453,0.41016 3.53515,0 5.29297,-1.85547 1.75781,-1.83594 1.75781,-5.56641 l 0,-1.77734 q -1.11328,1.93359 -2.85156,2.89062 -1.73828,0.95703 -4.16016,0.95703 -4.02344,0 -6.48437,-3.0664 -2.46094,-3.06641 -2.46094,-8.125 0,-5.07813 2.46094,-8.14453 2.46093,-3.06641 6.48437,-3.06641 2.42188,0 4.16016,0.95703 1.73828,0.95703 2.85156,2.89063 l 0,-3.32032 3.59375,0 0,19.16016 z"
         style=""
         id="path4264" />
      <path
         d="m 227.16731,872.42712 3.59375,0 0,21.875 -3.59375,0 0,-21.875 z m 0,-8.51562 3.59375,0 0,4.55078 -3.59375,0 0,-4.55078 z"
         style=""
         id="path4266" />
      <path
         d="m 256.44466,881.099 0,13.20312 -3.59375,0 0,-13.08593 q 0,-3.10547 -1.21094,-4.64844 -1.21094,-1.54297 -3.63281,-1.54297 -2.91016,0 -4.58985,1.85547 -1.67968,1.85547 -1.67968,5.05859 l 0,12.36328 -3.61329,0 0,-21.875 3.61329,0 0,3.39844 q 1.28906,-1.97265 3.02734,-2.94922 1.75781,-0.97656 4.04297,-0.97656 3.76953,0 5.70312,2.34375 1.9336,2.32422 1.9336,6.85547 z"
         style=""
         id="path4268" />
    </g>
    <g
       style="font-style:normal;font-variant:normal;font-weight:normal;font-stretch:normal;font-size:40px;line-height:125%;font-family:LKLUG;-inkscape-font-specification:LKLUG;letter-spacing:0px;word-spacing:0px;fill:#000000;fill-opacity:1;stroke:none;stroke-width:1px;stroke-linecap:butt;stroke-linejoin:miter;stroke-opacity:1"
       id="text4144">
      <path
         d="m 136.63997,946.53101 0,-13.24219 3.59375,0 0,13.10547 q 0,3.10547 1.21094,4.66797 1.21093,1.54296 3.63281,1.54296 2.91016,0 4.58984,-1.85546 1.69922,-1.85547 1.69922,-5.0586 l 0,-12.40234 3.59375,0 0,21.875 -3.59375,0 0,-3.35938 q -1.30859,1.99219 -3.04687,2.96875 -1.71875,0.95703 -4.00391,0.95703 -3.76953,0 -5.72266,-2.34375 -1.95312,-2.34375 -1.95312,-6.85546 z m 9.04297,-13.76954 0,0 z"
         style="fill:#ffffff"
         id="path4271" />
      <path
         d="m 178.61263,951.88257 0,11.60156 -3.61329,0 0,-30.19531 3.61329,0 0,3.32031 q 1.13281,-1.95312 2.85156,-2.89062 1.73828,-0.95704 4.14062,-0.95704 3.98438,0 6.46485,3.16407 2.5,3.16406 2.5,8.32031 0,5.15625 -2.5,8.32031 -2.48047,3.16406 -6.46485,3.16406 -2.40234,0 -4.14062,-0.9375 -1.71875,-0.95703 -2.85156,-2.91015 z m 12.22656,-7.63672 q 0,-3.96484 -1.64063,-6.21094 -1.62109,-2.26562 -4.47265,-2.26562 -2.85157,0 -4.49219,2.26562 -1.62109,2.2461 -1.62109,6.21094 0,3.96484 1.62109,6.23047 1.64062,2.24609 4.49219,2.24609 2.85156,0 4.47265,-2.24609 1.64063,-2.26563 1.64063,-6.23047 z"
         style=""
         id="path4273" />
      <path
         d="m 214.472,933.93335 0,3.39844 q -1.52344,-0.78125 -3.16406,-1.17188 -1.64063,-0.39062 -3.39844,-0.39062 -2.67578,0 -4.02344,0.82031 -1.32812,0.82031 -1.32812,2.46094 0,1.25 0.95703,1.97265 0.95703,0.70313 3.84766,1.34766 l 1.23046,0.27344 q 3.82813,0.82031 5.42969,2.32422 1.6211,1.48437 1.6211,4.16015 0,3.04688 -2.42188,4.82422 -2.40234,1.77734 -6.62109,1.77734 -1.75782,0 -3.67188,-0.35156 -1.89453,-0.33203 -4.0039,-1.01562 l 0,-3.71094 q 1.99218,1.03516 3.92578,1.5625 1.93359,0.50781 3.82812,0.50781 2.53906,0 3.90625,-0.85937 1.36719,-0.87891 1.36719,-2.46094 0,-1.46484 -0.99609,-2.24609 -0.97657,-0.78125 -4.31641,-1.50391 l -1.25,-0.29297 q -3.33984,-0.70312 -4.82422,-2.14844 -1.48437,-1.46484 -1.48437,-4.0039 0,-3.08594 2.1875,-4.76563 2.1875,-1.67969 6.21093,-1.67969 1.99219,0 3.75,0.29297 1.75782,0.29297 3.24219,0.87891 z"
         style=""
         id="path4275" />
      <path
         d="m 224.94075,927.07788 0,6.21094 7.40234,0 0,2.79297 -7.40234,0 0,11.875 q 0,2.67578 0.72266,3.4375 0.74218,0.76172 2.98828,0.76172 l 3.6914,0 0,3.00781 -3.6914,0 q -4.16016,0 -5.74219,-1.54297 -1.58203,-1.5625 -1.58203,-5.66406 l 0,-11.875 -2.63672,0 0,-2.79297 2.63672,0 0,-6.21094 3.61328,0 z"
         style=""
         id="path4277" />
      <path
         d="m 249.76497,936.64819 q -0.60547,-0.35156 -1.32813,-0.50781 -0.70312,-0.17578 -1.5625,-0.17578 -3.04687,0 -4.6875,1.99219 -1.62109,1.97265 -1.62109,5.68359 l 0,11.52344 -3.61328,0 0,-21.875 3.61328,0 0,3.39844 q 1.13281,-1.99219 2.94922,-2.94922 1.81641,-0.97657 4.41406,-0.97657 0.3711,0 0.82031,0.0586 0.44922,0.0391 0.9961,0.13672 l 0.0195,3.6914 z"
         style=""
         id="path4279" />
      <path
         d="m 271.42513,943.32788 0,1.75781 -16.52344,0 q 0.23437,3.71094 2.22656,5.66407 2.01172,1.93359 5.58594,1.93359 2.07031,0 4.0039,-0.50781 1.95313,-0.50782 3.86719,-1.52344 l 0,3.39844 q -1.93359,0.82031 -3.96484,1.25 -2.03125,0.42968 -4.1211,0.42968 -5.23437,0 -8.30078,-3.04687 -3.04687,-3.04688 -3.04687,-8.24219 0,-5.37109 2.89062,-8.51562 2.91016,-3.16407 7.83203,-3.16407 4.41407,0 6.97266,2.85157 2.57813,2.83203 2.57813,7.71484 z m -3.59375,-1.05469 q -0.0391,-2.94922 -1.66016,-4.70703 -1.60156,-1.75781 -4.25781,-1.75781 -3.00782,0 -4.82422,1.69922 -1.79688,1.69922 -2.07031,4.78515 l 12.8125,-0.0195 z"
         style=""
         id="path4281" />
      <path
         d="m 287.26497,944.16772 q -4.35547,0 -6.03516,0.9961 -1.67968,0.99609 -1.67968,3.39844 0,1.91406 1.25,3.04687 1.26953,1.11328 3.4375,1.11328 2.98828,0 4.78515,-2.10937 1.81641,-2.12891 1.81641,-5.64453 l 0,-0.80079 -3.57422,0 z m 7.16797,-1.48437 0,12.48047 -3.59375,0 0,-3.32031 q -1.23047,1.99218 -3.06641,2.94921 -1.83594,0.9375 -4.49219,0.9375 -3.35937,0 -5.35156,-1.875 -1.97265,-1.89453 -1.97265,-5.05859 0,-3.69141 2.46093,-5.56641 2.48047,-1.875 7.38282,-1.875 l 5.03906,0 0,-0.35156 q 0,-2.48047 -1.64063,-3.82812 -1.62109,-1.36719 -4.57031,-1.36719 -1.875,0 -3.65234,0.44922 -1.77735,0.44922 -3.41797,1.34765 l 0,-3.32031 q 1.97265,-0.76172 3.82812,-1.13281 1.85547,-0.39063 3.61328,-0.39063 4.7461,0 7.08985,2.46094 2.34375,2.46094 2.34375,7.46094 z"
         style=""
         id="path4283" />
      <path
         d="m 318.88606,937.48804 q 1.34766,-2.42188 3.22266,-3.57422 1.875,-1.15235 4.41406,-1.15235 3.41797,0 5.27344,2.40235 1.85547,2.38281 1.85547,6.79687 l 0,13.20313 -3.61328,0 0,-13.08594 q 0,-3.14453 -1.11328,-4.66797 -1.11329,-1.52344 -3.39844,-1.52344 -2.79297,0 -4.41406,1.85547 -1.6211,1.85547 -1.6211,5.0586 l 0,12.36328 -3.61328,0 0,-13.08594 q 0,-3.16406 -1.11328,-4.66797 -1.11328,-1.52344 -3.4375,-1.52344 -2.75391,0 -4.375,1.875 -1.62109,1.85547 -1.62109,5.03907 l 0,12.36328 -3.61329,0 0,-21.875 3.61329,0 0,3.39844 q 1.23046,-2.01172 2.94921,-2.96875 1.71875,-0.95704 4.08204,-0.95704 2.38281,0 4.04296,1.21094 1.67969,1.21094 2.48047,3.51563 z"
         style=""
         id="path4285" />
    </g>
    <g
       style="font-style:normal;font-variant:normal;font-weight:normal;font-stretch:normal;font-size:40px;line-height:125%;font-family:LKLUG;-inkscape-font-specification:LKLUG;letter-spacing:0px;word-spacing:0px;fill:#000000;fill-opacity:1;stroke:none;stroke-width:1px;stroke-linecap:butt;stroke-linejoin:miter;stroke-opacity:1"
       id="text4148">
      <path
         d="m 156.26608,1005.7079 0,13.2032 -3.59375,0 0,-13.086 q 0,-3.1054 -1.21093,-4.6484 -1.21094,-1.54297 -3.63282,-1.54297 -2.91015,0 -4.58984,1.85547 -1.67969,1.8555 -1.67969,5.0586 l 0,12.3633 -3.61328,0 0,-30.39065 3.61328,0 0,11.91405 q 1.28906,-1.97265 3.02735,-2.94921 1.75781,-0.97656 4.04296,-0.97656 3.76954,0 5.70313,2.34375 1.93359,2.32422 1.93359,6.85542 z"
         style="fill:#ffffff"
         id="path4288" />
      <path
         d="m 194.91843,1007.0751 0,1.7578 -16.52344,0 q 0.23437,3.711 2.22656,5.6641 2.01172,1.9336 5.58594,1.9336 2.07031,0 4.00391,-0.5078 1.95312,-0.5078 3.86718,-1.5234 l 0,3.3984 q -1.93359,0.8203 -3.96484,1.25 -2.03125,0.4297 -4.12109,0.4297 -5.23438,0 -8.30079,-3.0469 -3.04687,-3.0469 -3.04687,-8.2422 0,-5.3711 2.89062,-8.51561 2.91016,-3.16406 7.83204,-3.16406 4.41406,0 6.97265,2.85156 2.57813,2.83201 2.57813,7.71481 z m -3.59375,-1.0547 q -0.0391,-2.9492 -1.66016,-4.707 -1.60156,-1.7578 -4.25781,-1.7578 -3.00781,0 -4.82422,1.6992 -1.79688,1.6992 -2.07031,4.7852 l 12.8125,-0.02 z"
         style=""
         id="path4290" />
      <path
         d="m 213.49265,1000.3954 q -0.60547,-0.3515 -1.32813,-0.50777 -0.70312,-0.17578 -1.5625,-0.17578 -3.04687,0 -4.6875,1.99215 -1.62109,1.9727 -1.62109,5.6836 l 0,11.5235 -3.61328,0 0,-21.87503 3.61328,0 0,3.39843 q 1.13281,-1.99218 2.94922,-2.94921 1.8164,-0.97656 4.41406,-0.97656 0.37109,0 0.82031,0.0586 0.44922,0.0391 0.99609,0.13672 l 0.0195,3.69136 z"
         style=""
         id="path4292" />
      <path
         d="m 224.91843,999.5556 q -2.89063,0 -4.57032,2.2656 -1.67968,2.2461 -1.67968,6.1719 0,3.9258 1.66015,6.1914 1.67969,2.2461 4.58985,2.2461 2.87109,0 4.55078,-2.2656 1.67969,-2.2656 1.67969,-6.1719 0,-3.8867 -1.67969,-6.1523 -1.67969,-2.2852 -4.55078,-2.2852 z m 0,-3.04687 q 4.6875,0 7.36328,3.04687 2.67578,3.0469 2.67578,8.4375 0,5.3711 -2.67578,8.4375 -2.67578,3.0469 -7.36328,3.0469 -4.70703,0 -7.38282,-3.0469 -2.65625,-3.0664 -2.65625,-8.4375 0,-5.3906 2.65625,-8.4375 2.67579,-3.04687 7.38282,-3.04687 z"
         style=""
         id="path4294" />
      <path
         d="m 240.75827,988.52045 3.61328,0 0,17.94925 10.72266,-9.43363 4.58984,0 -11.60156,10.23433 12.08984,11.6407 -4.6875,0 -11.11328,-10.6836 0,10.6836 -3.61328,0 0,-30.39065 z"
         style=""
         id="path4296" />
      <path
         d="m 262.47702,1010.2783 0,-13.24223 3.59375,0 0,13.10543 q 0,3.1055 1.21094,4.668 1.21094,1.543 3.63281,1.543 2.91016,0 4.58984,-1.8555 1.69922,-1.8555 1.69922,-5.0586 l 0,-12.40233 3.59375,0 0,21.87503 -3.59375,0 0,-3.3594 q -1.30859,1.9922 -3.04687,2.9687 -1.71875,0.9571 -4.00391,0.9571 -3.76953,0 -5.72265,-2.3438 -1.95313,-2.3437 -1.95313,-6.8554 z m 9.04297,-13.76957 0,0 z"
         style=""
         id="path4298" />
    </g>
    <path
       style="opacity:1;fill:#00d4aa;fill-opacity:1;stroke:none;stroke-width:6;stroke-linecap:round;stroke-linejoin:round;stroke-miterlimit:4;stroke-dasharray:none;stroke-opacity:1"
       d="m 132.63014,777.34467 148.91539,0 c 3.91739,0 7.07109,3.1537 7.07109,7.07109 l 0,36.36544 c 0,3.91738 -3.1537,7.07109 -7.07109,7.07109 l -148.91539,0 c -3.91738,0 -7.07109,-3.15371 -7.07109,-7.07109 l 0,-36.36544 c 0,-3.91739 3.15371,-7.07109 7.07109,-7.07109 z"
       id="rect4164" />
    <path
       style="opacity:1;fill:#d4002a;fill-opacity:1;stroke:none;stroke-width:6;stroke-linecap:round;stroke-linejoin:round;stroke-miterlimit:4;stroke-dasharray:none;stroke-opacity:1"
       d="m 308.64827,777.34467 136.24535,0 c 3.91738,0 7.07109,3.1537 7.07109,7.07109 l 0,36.36544 c 0,3.91738 -3.15371,7.07109 -7.07109,7.07109 l -136.24535,0 c -3.91738,0 -7.07109,-3.15371 -7.07109,-7.07109 l 0,-36.36544 c 0,-3.91739 3.15371,-7.07109 7.07109,-7.07109 z"
       id="rect4166" />
    <path
       style="opacity:1;fill:#d4002a;fill-opacity:1;stroke:none;stroke-width:6;stroke-linecap:round;stroke-linejoin:round;stroke-miterlimit:4;stroke-dasharray:none;stroke-opacity:1"
       d="m 385.09352,980.67682 26.01182,0 c 3.91738,0 7.07109,3.15371 7.07109,7.07109 l 0,36.36549 c 0,3.9173 -3.15371,7.071 -7.07109,7.071 l -26.01182,0 c -3.91738,0 -7.07109,-3.1537 -7.07109,-7.071 l 0,-36.36549 c 0,-3.91738 3.15371,-7.07109 7.07109,-7.07109 z"
       id="rect4174" />
    <path
       style="opacity:1;fill:#d4002a;fill-opacity:1;stroke:none;stroke-width:6;stroke-linecap:round;stroke-linejoin:round;stroke-miterlimit:4;stroke-dasharray:none;stroke-opacity:1"
       d="m 385.09352,918.89111 26.01182,0 c 3.91738,0 7.07109,3.15371 7.07109,7.07109 l 0,36.36545 c 0,3.91738 -3.15371,7.07109 -7.07109,7.07109 l -26.01182,0 c -3.91738,0 -7.07109,-3.15371 -7.07109,-7.07109 l 0,-36.36545 c 0,-3.91738 3.15371,-7.07109 7.07109,-7.07109 z"
       id="rect4176" />
    <path
       style="opacity:1;fill:#d4002a;fill-opacity:1;stroke:none;stroke-width:6;stroke-linecap:round;stroke-linejoin:round;stroke-miterlimit:4;stroke-dasharray:none;stroke-opacity:1"
       d="m 385.09352,857.77686 26.01138,0 c 3.91739,0 7.07109,3.1537 7.07109,7.07109 l 0,36.36544 c 0,3.91738 -3.1537,7.07109 -7.07109,7.07109 l -26.01138,0 c -3.91738,0 -7.07109,-3.15371 -7.07109,-7.07109 l 0,-36.36544 c 0,-3.91739 3.15371,-7.07109 7.07109,-7.07109 z"
       id="rect4178" />
    <g
       style="font-style:normal;font-variant:normal;font-weight:normal;font-stretch:normal;font-size:40px;line-height:125%;font-family:LKLUG;-inkscape-font-specification:LKLUG;letter-spacing:0px;word-spacing:0px;fill:#000000;fill-opacity:1;stroke:none;stroke-width:1px;stroke-linecap:butt;stroke-linejoin:miter;stroke-opacity:1"
       id="text4180">
      <path
         d="m 398.71365,876.62634 q 1.34766,-2.42187 3.22266,-3.57422 1.875,-1.15234 4.41406,-1.15234 3.41797,0 5.27344,2.40234 1.85547,2.38282 1.85547,6.79688 l 0,13.20312 -3.61328,0 0,-13.08593 q 0,-3.14453 -1.11328,-4.66797 -1.11329,-1.52344 -3.39844,-1.52344 -2.79297,0 -4.41406,1.85547 -1.6211,1.85547 -1.6211,5.05859 l 0,12.36328 -3.61328,0 0,-13.08593 q 0,-3.16407 -1.11328,-4.66797 -1.11328,-1.52344 -3.4375,-1.52344 -2.75391,0 -4.375,1.875 -1.62109,1.85547 -1.62109,5.03906 l 0,12.36328 -3.61329,0 0,-21.875 3.61329,0 0,3.39844 q 1.23046,-2.01172 2.94921,-2.96875 1.71875,-0.95703 4.08204,-0.95703 2.38281,0 4.04296,1.21094 1.67969,1.21094 2.48047,3.51562 z"
         style="fill:#ffffff"
         id="path4306" />
      <path
         d="m 443.34256,883.30603 q -4.35547,0 -6.03516,0.99609 -1.67968,0.9961 -1.67968,3.39844 0,1.91406 1.25,3.04688 1.26953,1.11328 3.4375,1.11328 2.98828,0 4.78515,-2.10938 1.81641,-2.1289 1.81641,-5.64453 l 0,-0.80078 -3.57422,0 z m 7.16797,-1.48437 0,12.48046 -3.59375,0 0,-3.32031 q -1.23047,1.99219 -3.06641,2.94922 -1.83594,0.9375 -4.49219,0.9375 -3.35937,0 -5.35156,-1.875 -1.97265,-1.89453 -1.97265,-5.05859 0,-3.69141 2.46093,-5.56641 2.48047,-1.875 7.38282,-1.875 l 5.03906,0 0,-0.35156 q 0,-2.48047 -1.64063,-3.82813 -1.62109,-1.36718 -4.57031,-1.36718 -1.875,0 -3.65234,0.44921 -1.77735,0.44922 -3.41797,1.34766 l 0,-3.32031 q 1.97265,-0.76172 3.82812,-1.13281 1.85547,-0.39063 3.61328,-0.39063 4.7461,0 7.08985,2.46094 2.34375,2.46094 2.34375,7.46094 z"
         style=""
         id="path4308" />
      <path
         d="m 471.87772,873.07166 0,3.39843 q -1.52344,-0.78125 -3.16407,-1.17187 -1.64062,-0.39063 -3.39843,-0.39063 -2.67579,0 -4.02344,0.82032 -1.32813,0.82031 -1.32813,2.46093 0,1.25 0.95703,1.97266 0.95704,0.70312 3.84766,1.34766 l 1.23047,0.27343 q 3.82812,0.82032 5.42969,2.32422 1.62109,1.48438 1.62109,4.16016 0,3.04687 -2.42187,4.82422 -2.40235,1.77734 -6.6211,1.77734 -1.75781,0 -3.67187,-0.35156 -1.89453,-0.33203 -4.00391,-1.01563 l 0,-3.71093 q 1.99219,1.03515 3.92578,1.5625 1.9336,0.50781 3.82813,0.50781 2.53906,0 3.90625,-0.85938 1.36718,-0.8789 1.36718,-2.46093 0,-1.46485 -0.99609,-2.2461 -0.97656,-0.78125 -4.31641,-1.5039 l -1.25,-0.29297 q -3.33984,-0.70313 -4.82421,-2.14844 -1.48438,-1.46484 -1.48438,-4.00391 0,-3.08593 2.1875,-4.76562 2.1875,-1.67969 6.21094,-1.67969 1.99219,0 3.75,0.29297 1.75781,0.29297 3.24219,0.87891 z"
         style=""
         id="path4310" />
      <path
         d="m 482.34647,866.21619 0,6.21093 7.40234,0 0,2.79297 -7.40234,0 0,11.875 q 0,2.67578 0.72265,3.4375 0.74219,0.76172 2.98828,0.76172 l 3.69141,0 0,3.00781 -3.69141,0 q -4.16015,0 -5.74218,-1.54296 -1.58204,-1.5625 -1.58204,-5.66407 l 0,-11.875 -2.63671,0 0,-2.79297 2.63671,0 0,-6.21093 3.61329,0 z"
         style=""
         id="path4312" />
      <path
         d="m 513.20584,882.46619 0,1.75781 -16.52344,0 q 0.23438,3.71094 2.22657,5.66406 2.01171,1.9336 5.58593,1.9336 2.07032,0 4.00391,-0.50782 1.95312,-0.50781 3.86719,-1.52343 l 0,3.39843 q -1.9336,0.82032 -3.96485,1.25 -2.03125,0.42969 -4.12109,0.42969 -5.23438,0 -8.30078,-3.04687 -3.04688,-3.04688 -3.04688,-8.24219 0,-5.3711 2.89063,-8.51563 2.91015,-3.16406 7.83203,-3.16406 4.41406,0 6.97266,2.85156 2.57812,2.83203 2.57812,7.71485 z m -3.59375,-1.05469 q -0.0391,-2.94922 -1.66016,-4.70703 -1.60156,-1.75781 -4.25781,-1.75781 -3.00781,0 -4.82422,1.69921 -1.79687,1.69922 -2.07031,4.78516 l 12.8125,-0.0195 z"
         style=""
         id="path4314" />
      <path
         d="m 531.78006,875.7865 q -0.60547,-0.35156 -1.32813,-0.50781 -0.70312,-0.17578 -1.5625,-0.17578 -3.04687,0 -4.6875,1.99218 -1.62109,1.97266 -1.62109,5.6836 l 0,11.52343 -3.61328,0 0,-21.875 3.61328,0 0,3.39844 q 1.13281,-1.99219 2.94922,-2.94922 1.81641,-0.97656 4.41406,-0.97656 0.3711,0 0.82031,0.0586 0.44922,0.0391 0.9961,0.13672 l 0.0195,3.69141 z"
         style=""
         id="path4316" />
    </g>
    <g
       style="font-style:normal;font-variant:normal;font-weight:normal;font-stretch:normal;font-size:40px;line-height:125%;font-family:LKLUG;-inkscape-font-specification:LKLUG;letter-spacing:0px;word-spacing:0px;fill:#000000;fill-opacity:1;stroke:none;stroke-width:1px;stroke-linecap:butt;stroke-linejoin:miter;stroke-opacity:1"
       id="text4186">
      <path
         d="m 406.2326,926.52319 0,2.98828 -3.4375,0 q -1.93359,0 -2.69531,0.78125 -0.74219,0.78125 -0.74219,2.8125 l 0,1.9336 5.91797,0 0,2.79297 -5.91797,0 0,19.08203 -3.61328,0 0,-19.08203 -3.4375,0 0,-2.79297 3.4375,0 0,-1.52344 q 0,-3.65234 1.69922,-5.3125 1.69922,-1.67969 5.39063,-1.67969 l 3.39843,0 z"
         style="fill:#ffffff"
         id="path4319" />
    </g>
    <g
       style="font-style:normal;font-variant:normal;font-weight:normal;font-stretch:normal;font-size:40px;line-height:125%;font-family:LKLUG;-inkscape-font-specification:LKLUG;letter-spacing:0px;word-spacing:0px;fill:#000000;fill-opacity:1;stroke:none;stroke-width:1px;stroke-linecap:butt;stroke-linejoin:miter;stroke-opacity:1"
       id="text4192">
      <path
         d="m 406.6535,1009.4074 q 0,-3.9648 -1.64062,-6.2109 -1.6211,-2.2657 -4.47266,-2.2657 -2.85156,0 -4.49219,2.2657 -1.62109,2.2461 -1.62109,6.2109 0,3.9649 1.62109,6.2305 1.64063,2.2461 4.49219,2.2461 2.85156,0 4.47266,-2.2461 1.64062,-2.2656 1.64062,-6.2305 z m -12.22656,-7.6367 q 1.13281,-1.95313 2.85156,-2.89063 1.73828,-0.95704 4.14063,-0.95704 3.98437,0 6.46484,3.16407 2.5,3.1641 2.5,8.3203 0,5.1563 -2.5,8.3203 -2.48047,3.1641 -6.46484,3.1641 -2.40235,0 -4.14063,-0.9375 -1.71875,-0.957 -2.85156,-2.9102 l 0,3.2813 -3.61328,0 0,-30.39065 3.61328,0 0,11.83595 z"
         style="fill:#ffffff"
         id="path4322" />
      <path
         d="m 428.70428,1011.6926 0,-13.24222 3.59375,0 0,13.10542 q 0,3.1055 1.21094,4.668 1.21094,1.543 3.63281,1.543 2.91016,0 4.58985,-1.8555 1.69922,-1.8555 1.69922,-5.0586 l 0,-12.40232 3.59375,0 0,21.87502 -3.59375,0 0,-3.3594 q -1.3086,1.9922 -3.04688,2.9688 -1.71875,0.957 -4.0039,0.957 -3.76954,0 -5.72266,-2.3438 -1.95313,-2.3437 -1.95313,-6.8554 z m 9.04297,-13.76957 0,0 z"
         style=""
         id="path4324" />
      <path
         d="m 468.86053,1009.134 q 0,-3.9063 -1.62109,-6.0547 -1.60156,-2.1485 -4.51172,-2.1485 -2.89062,0 -4.51172,2.1485 -1.60156,2.1484 -1.60156,6.0547 0,3.8867 1.60156,6.0351 1.6211,2.1485 4.51172,2.1485 2.91016,0 4.51172,-2.1485 1.62109,-2.1484 1.62109,-6.0351 z m 3.59375,8.4765 q 0,5.586 -2.48046,8.3008 -2.48047,2.7344 -7.59766,2.7344 -1.89453,0 -3.57422,-0.293 -1.67969,-0.2734 -3.26172,-0.8594 l 0,-3.496 q 1.58203,0.8593 3.125,1.2695 1.54297,0.4101 3.14453,0.4101 3.53516,0 5.29297,-1.8554 1.75781,-1.836 1.75781,-5.5664 l 0,-1.7774 q -1.11328,1.9336 -2.85156,2.8906 -1.73828,0.9571 -4.16015,0.9571 -4.02344,0 -6.48438,-3.0664 -2.46094,-3.0664 -2.46094,-8.125 0,-5.0782 2.46094,-8.1446 2.46094,-3.06637 6.48438,-3.06637 2.42187,0 4.16015,0.95704 1.73828,0.95703 2.85156,2.89063 l 0,-3.32032 3.59375,0 0,19.16012 z"
         style=""
         id="path4326" />
      <path
         d="m 497.53241,998.45038 0,21.87502 -3.61328,0 0,-19.0821 -9.86328,0 0,19.0821 -3.61328,0 0,-19.0821 -3.4375,0 0,-2.79292 3.4375,0 0,-1.52344 q 0,-3.57422 1.67968,-5.27344 1.69922,-1.71875 5.19532,-1.71875 l 3.61328,0 0,2.98828 -3.4375,0 q -1.9336,0 -2.69532,0.78125 -0.74218,0.78125 -0.74218,2.8125 l 0,1.9336 13.47656,0 z m -3.61328,-8.47656 3.61328,0 0,4.55078 -3.61328,0 0,-4.55078 z"
         style=""
         id="path4328" />
      <path
         d="m 523.2746,998.45038 -7.91016,10.64452 8.32031,11.2305 -4.23828,0 -6.36719,-8.5938 -6.36718,8.5938 -4.23828,0 8.49609,-11.4453 -7.77344,-10.42972 4.23828,0 5.80078,7.79292 5.80079,-7.79292 4.23828,0 z"
         style=""
         id="path4330" />
    </g>
    <g
       style="font-style:normal;font-variant:normal;font-weight:normal;font-stretch:normal;font-size:40px;line-height:125%;font-family:LKLUG;-inkscape-font-specification:LKLUG;letter-spacing:0px;word-spacing:0px;fill:#ffffff;fill-opacity:1;stroke:none;stroke-width:1px;stroke-linecap:butt;stroke-linejoin:miter;stroke-opacity:1"
       id="text4204">
      <path
         d="m 149.81624,796.95978 q -0.60547,-0.35156 -1.32813,-0.50781 -0.70312,-0.17579 -1.5625,-0.17579 -3.04687,0 -4.6875,1.99219 -1.62109,1.97266 -1.62109,5.6836 l 0,11.52343 -3.61328,0 0,-21.875 3.61328,0 0,3.39844 q 1.13281,-1.99219 2.94922,-2.94922 1.8164,-0.97656 4.41406,-0.97656 0.37109,0 0.82031,0.0586 0.44922,0.0391 0.9961,0.13672 l 0.0195,3.69141 z"
         style=""
         id="path4333" />
      <path
         d="m 171.47639,803.63947 0,1.75781 -16.52343,0 q 0.23437,3.71094 2.22656,5.66406 2.01172,1.93359 5.58594,1.93359 2.07031,0 4.0039,-0.50781 1.95313,-0.50781 3.86719,-1.52344 l 0,3.39844 q -1.93359,0.82031 -3.96484,1.25 -2.03125,0.42969 -4.1211,0.42969 -5.23437,0 -8.30078,-3.04688 -3.04687,-3.04687 -3.04687,-8.24218 0,-5.3711 2.89062,-8.51563 2.91016,-3.16406 7.83203,-3.16406 4.41407,0 6.97266,2.85156 2.57812,2.83203 2.57812,7.71485 z m -3.59375,-1.05469 q -0.0391,-2.94922 -1.66015,-4.70703 -1.60156,-1.75782 -4.25781,-1.75782 -3.00782,0 -4.82422,1.69922 -1.79688,1.69922 -2.07032,4.78516 l 12.8125,-0.0195 z"
         style=""
         id="path4335" />
      <path
         d="m 194.40608,797.79962 q 1.34766,-2.42187 3.22266,-3.57422 1.875,-1.15234 4.41406,-1.15234 3.41797,0 5.27344,2.40234 1.85547,2.38282 1.85547,6.79688 l 0,13.20312 -3.61328,0 0,-13.08593 q 0,-3.14454 -1.11329,-4.66797 -1.11328,-1.52344 -3.39843,-1.52344 -2.79297,0 -4.41407,1.85547 -1.62109,1.85547 -1.62109,5.05859 l 0,12.36328 -3.61328,0 0,-13.08593 q 0,-3.16407 -1.11328,-4.66797 -1.11328,-1.52344 -3.4375,-1.52344 -2.75391,0 -4.375,1.875 -1.6211,1.85547 -1.6211,5.03906 l 0,12.36328 -3.61328,0 0,-21.875 3.61328,0 0,3.39844 q 1.23047,-2.01172 2.94922,-2.96875 1.71875,-0.95703 4.08203,-0.95703 2.38282,0 4.04297,1.21094 1.67969,1.21093 2.48047,3.51562 z"
         style=""
         id="path4337" />
      <path
         d="m 224.83577,796.11993 q -2.89063,0 -4.57031,2.26563 -1.67969,2.24609 -1.67969,6.17187 0,3.92579 1.66016,6.19141 1.67968,2.24609 4.58984,2.24609 2.87109,0 4.55078,-2.26562 1.67969,-2.26563 1.67969,-6.17188 0,-3.88671 -1.67969,-6.15234 -1.67969,-2.28516 -4.55078,-2.28516 z m 0,-3.04687 q 4.6875,0 7.36328,3.04687 2.67578,3.04688 2.67578,8.4375 0,5.3711 -2.67578,8.4375 -2.67578,3.04688 -7.36328,3.04688 -4.70703,0 -7.38281,-3.04688 -2.65625,-3.0664 -2.65625,-8.4375 0,-5.39062 2.65625,-8.4375 2.67578,-3.04687 7.38281,-3.04687 z"
         style=""
         id="path4339" />
      <path
         d="m 244.36702,787.38947 0,6.21093 7.40234,0 0,2.79297 -7.40234,0 0,11.875 q 0,2.67578 0.72266,3.4375 0.74218,0.76172 2.98828,0.76172 l 3.6914,0 0,3.00781 -3.6914,0 q -4.16016,0 -5.74219,-1.54297 -1.58203,-1.5625 -1.58203,-5.66406 l 0,-11.875 -2.63672,0 0,-2.79297 2.63672,0 0,-6.21093 3.61328,0 z"
         style=""
         id="path4341" />
      <path
         d="m 275.22639,803.63947 0,1.75781 -16.52343,0 q 0.23437,3.71094 2.22656,5.66406 2.01172,1.93359 5.58594,1.93359 2.07031,0 4.0039,-0.50781 1.95313,-0.50781 3.86719,-1.52344 l 0,3.39844 q -1.93359,0.82031 -3.96484,1.25 -2.03125,0.42969 -4.1211,0.42969 -5.23437,0 -8.30078,-3.04688 -3.04687,-3.04687 -3.04687,-8.24218 0,-5.3711 2.89062,-8.51563 2.91016,-3.16406 7.83203,-3.16406 4.41407,0 6.97266,2.85156 2.57812,2.83203 2.57812,7.71485 z m -3.59375,-1.05469 q -0.0391,-2.94922 -1.66015,-4.70703 -1.60156,-1.75782 -4.25781,-1.75782 -3.00782,0 -4.82422,1.69922 -1.79688,1.69922 -2.07032,4.78516 l 12.8125,-0.0195 z"
         style=""
         id="path4343" />
    </g>
    <g
       style="font-style:normal;font-variant:normal;font-weight:normal;font-stretch:normal;font-size:40px;line-height:125%;font-family:LKLUG;-inkscape-font-specification:LKLUG;letter-spacing:0px;word-spacing:0px;fill:#ffffff;fill-opacity:1;stroke:none;stroke-width:1px;stroke-linecap:butt;stroke-linejoin:miter;stroke-opacity:1"
       id="text4208">
      <path
         d="m 326.8436,804.55743 q 0,-3.96484 -1.64063,-6.21093 -1.62109,-2.26563 -4.47265,-2.26563 -2.85157,0 -4.49219,2.26563 -1.6211,2.24609 -1.6211,6.21093 0,3.96485 1.6211,6.23047 1.64062,2.2461 4.49219,2.2461 2.85156,0 4.47265,-2.2461 1.64063,-2.26562 1.64063,-6.23047 z m -12.22657,-7.63671 q 1.13282,-1.95313 2.85157,-2.89063 1.73828,-0.95703 4.14062,-0.95703 3.98438,0 6.46485,3.16406 2.5,3.16406 2.5,8.32031 0,5.15625 -2.5,8.32032 -2.48047,3.16406 -6.46485,3.16406 -2.40234,0 -4.14062,-0.9375 -1.71875,-0.95703 -2.85157,-2.91016 l 0,3.28125 -3.61328,0 0,-30.39062 3.61328,0 0,11.83594 z"
         style=""
         id="path4346" />
      <path
         d="m 349.20688,796.95978 q -0.60547,-0.35156 -1.32813,-0.50781 -0.70312,-0.17579 -1.5625,-0.17579 -3.04687,0 -4.6875,1.99219 -1.62109,1.97266 -1.62109,5.6836 l 0,11.52343 -3.61328,0 0,-21.875 3.61328,0 0,3.39844 q 1.13281,-1.99219 2.94922,-2.94922 1.8164,-0.97656 4.41406,-0.97656 0.37109,0 0.82031,0.0586 0.44922,0.0391 0.9961,0.13672 l 0.0195,3.69141 z"
         style=""
         id="path4348" />
      <path
         d="m 362.95688,804.47931 q -4.35547,0 -6.03516,0.99609 -1.67969,0.9961 -1.67969,3.39844 0,1.91406 1.25,3.04688 1.26954,1.11328 3.4375,1.11328 2.98829,0 4.78516,-2.10938 1.81641,-2.1289 1.81641,-5.64453 l 0,-0.80078 -3.57422,0 z m 7.16797,-1.48438 0,12.48047 -3.59375,0 0,-3.32031 q -1.23047,1.99219 -3.06641,2.94922 -1.83594,0.9375 -4.49219,0.9375 -3.35937,0 -5.35156,-1.875 -1.97266,-1.89453 -1.97266,-5.05859 0,-3.69141 2.46094,-5.56641 2.48047,-1.875 7.38281,-1.875 l 5.03907,0 0,-0.35156 q 0,-2.48047 -1.64063,-3.82813 -1.62109,-1.36719 -4.57031,-1.36719 -1.875,0 -3.65234,0.44922 -1.77735,0.44922 -3.41797,1.34766 l 0,-3.32031 q 1.97265,-0.76172 3.82812,-1.13282 1.85547,-0.39062 3.61328,-0.39062 4.7461,0 7.08985,2.46094 2.34375,2.46093 2.34375,7.46093 z"
         style=""
         id="path4350" />
      <path
         d="m 395.73032,802.27228 0,13.20312 -3.59375,0 0,-13.08593 q 0,-3.10547 -1.21094,-4.64844 -1.21094,-1.54297 -3.63281,-1.54297 -2.91016,0 -4.58985,1.85547 -1.67969,1.85547 -1.67969,5.05859 l 0,12.36328 -3.61328,0 0,-21.875 3.61328,0 0,3.39844 q 1.28907,-1.97266 3.02735,-2.94922 1.75781,-0.97656 4.04297,-0.97656 3.76953,0 5.70312,2.34375 1.9336,2.32422 1.9336,6.85547 z"
         style=""
         id="path4352" />
      <path
         d="m 418.67953,794.44025 0,3.35937 q -1.52343,-0.83984 -3.0664,-1.25 -1.52344,-0.42969 -3.08594,-0.42969 -3.49609,0 -5.42969,2.22657 -1.93359,2.20703 -1.93359,6.21093 0,4.00391 1.93359,6.23047 1.9336,2.20703 5.42969,2.20703 1.5625,0 3.08594,-0.41015 1.54297,-0.42969 3.0664,-1.26953 l 0,3.32031 q -1.5039,0.70312 -3.125,1.05469 -1.60156,0.35156 -3.41796,0.35156 -4.94141,0 -7.85157,-3.10547 -2.91015,-3.10547 -2.91015,-8.37891 0,-5.35156 2.92968,-8.41796 2.94922,-3.06641 8.06641,-3.06641 1.66016,0 3.24219,0.35156 1.58203,0.33203 3.0664,1.01563 z"
         style=""
         id="path4354" />
      <path
         d="m 443.15219,802.27228 0,13.20312 -3.59375,0 0,-13.08593 q 0,-3.10547 -1.21094,-4.64844 -1.21093,-1.54297 -3.63281,-1.54297 -2.91016,0 -4.58984,1.85547 -1.67969,1.85547 -1.67969,5.05859 l 0,12.36328 -3.61328,0 0,-30.39062 3.61328,0 0,11.91406 q 1.28906,-1.97266 3.02734,-2.94922 1.75782,-0.97656 4.04297,-0.97656 3.76953,0 5.70313,2.34375 1.93359,2.32422 1.93359,6.85547 z"
         style=""
         id="path4356" />
    </g>
    <g
       style="font-style:normal;font-variant:normal;font-weight:normal;font-stretch:normal;font-size:40px;line-height:125%;font-family:LKLUG;-inkscape-font-specification:LKLUG;letter-spacing:0px;word-spacing:0px;fill:#b3b3b3;fill-opacity:1;stroke:none;stroke-width:1px;stroke-linecap:butt;stroke-linejoin:miter;stroke-opacity:1"
       id="text4218">
      <path
         d="m 477.61548,802.91681 10.52734,0 0,3.20312 -10.52734,0 0,-3.20312 z"
         style="fill:#b3b3b3"
         id="path4359" />
      <path
         d="m 492.0686,802.91681 10.52735,0 0,3.20312 -10.52735,0 0,-3.20312 z"
         style="fill:#b3b3b3"
         id="path4361" />
      <path
         d="m 516.01392,785.08478 10,0 0,30.39062 -3.61329,0 0,-27.40234 -6.42578,0 q -1.93359,0 -2.69531,0.78125 -0.74219,0.78125 -0.74219,2.8125 l 0,1.93359 5.91797,0 0,2.79297 -5.91797,0 0,19.08203 -3.61328,0 0,-19.08203 -3.4375,0 0,-2.79297 3.4375,0 0,-1.52343 q 0,-3.65235 1.69922,-5.3125 1.69922,-1.67969 5.39063,-1.67969 z"
         style="fill:#b3b3b3"
         id="path4363" />
      <path
         d="m 543.51392,804.47931 q -4.35547,0 -6.03516,0.99609 -1.67969,0.9961 -1.67969,3.39844 0,1.91406 1.25,3.04688 1.26953,1.11328 3.4375,1.11328 2.98828,0 4.78516,-2.10938 1.8164,-2.1289 1.8164,-5.64453 l 0,-0.80078 -3.57421,0 z m 7.16796,-1.48438 0,12.48047 -3.59375,0 0,-3.32031 q -1.23046,1.99219 -3.0664,2.94922 -1.83594,0.9375 -4.49219,0.9375 -3.35937,0 -5.35156,-1.875 -1.97266,-1.89453 -1.97266,-5.05859 0,-3.69141 2.46094,-5.56641 2.48047,-1.875 7.38281,-1.875 l 5.03906,0 0,-0.35156 q 0,-2.48047 -1.64062,-3.82813 -1.62109,-1.36719 -4.57031,-1.36719 -1.875,0 -3.65235,0.44922 -1.77734,0.44922 -3.41797,1.34766 l 0,-3.32031 q 1.97266,-0.76172 3.82813,-1.13282 1.85547,-0.39062 3.61328,-0.39062 4.74609,0 7.08984,2.46094 2.34375,2.46093 2.34375,7.46093 z"
         style="fill:#b3b3b3"
         id="path4365" />
      <path
         d="m 572.49829,804.284 q 0,-3.90625 -1.62109,-6.05469 -1.60157,-2.14844 -4.51172,-2.14844 -2.89063,0 -4.51172,2.14844 -1.60156,2.14844 -1.60156,6.05469 0,3.88672 1.60156,6.03515 1.62109,2.14844 4.51172,2.14844 2.91015,0 4.51172,-2.14844 1.62109,-2.14843 1.62109,-6.03515 z m 3.59375,8.47656 q 0,5.58594 -2.48047,8.30078 -2.48047,2.73438 -7.59765,2.73438 -1.89454,0 -3.57422,-0.29297 -1.67969,-0.27344 -3.26172,-0.85938 l 0,-3.49609 q 1.58203,0.85937 3.125,1.26953 1.54297,0.41016 3.14453,0.41016 3.53516,0 5.29297,-1.85547 1.75781,-1.83594 1.75781,-5.56641 l 0,-1.77734 q -1.11328,1.93359 -2.85156,2.89062 -1.73828,0.95703 -4.16016,0.95703 -4.02344,0 -6.48437,-3.0664 -2.46094,-3.06641 -2.46094,-8.125 0,-5.07813 2.46094,-8.14453 2.46093,-3.06641 6.48437,-3.06641 2.42188,0 4.16016,0.95703 1.73828,0.95703 2.85156,2.89063 l 0,-3.32032 3.59375,0 0,19.16016 z"
         style="fill:#b3b3b3"
         id="path4367" />
    </g>
    <g
       style="font-style:normal;font-variant:normal;font-weight:normal;font-stretch:normal;font-size:40px;line-height:125%;font-family:LKLUG;-inkscape-font-specification:LKLUG;letter-spacing:0px;word-spacing:0px;fill:#000000;fill-opacity:1;stroke:none;stroke-width:1px;stroke-linecap:butt;stroke-linejoin:miter;stroke-opacity:1"
       id="text4222">
      <path
         d="m 448.65057,945.07788 0,1.75781 -16.52343,0 q 0.23437,3.71094 2.22656,5.66407 2.01172,1.93359 5.58594,1.93359 2.07031,0 4.0039,-0.50781 1.95313,-0.50782 3.86719,-1.52344 l 0,3.39844 q -1.93359,0.82031 -3.96484,1.25 -2.03125,0.42968 -4.1211,0.42968 -5.23437,0 -8.30078,-3.04687 -3.04687,-3.04688 -3.04687,-8.24219 0,-5.37109 2.89062,-8.51562 2.91016,-3.16407 7.83203,-3.16407 4.41406,0 6.97266,2.85157 2.57812,2.83203 2.57812,7.71484 z m -3.59375,-1.05469 q -0.0391,-2.94922 -1.66015,-4.70703 -1.60157,-1.75781 -4.25782,-1.75781 -3.00781,0 -4.82421,1.69922 -1.79688,1.69922 -2.07032,4.78515 l 12.8125,-0.0195 z"
         style=""
         id="path4370" />
      <path
         d="m 464.49042,945.91772 q -4.35547,0 -6.03516,0.9961 -1.67969,0.99609 -1.67969,3.39844 0,1.91406 1.25,3.04687 1.26953,1.11328 3.4375,1.11328 2.98828,0 4.78516,-2.10937 1.81641,-2.12891 1.81641,-5.64453 l 0,-0.80079 -3.57422,0 z m 7.16797,-1.48437 0,12.48047 -3.59375,0 0,-3.32031 q -1.23047,1.99218 -3.06641,2.94921 -1.83594,0.9375 -4.49219,0.9375 -3.35937,0 -5.35156,-1.875 -1.97266,-1.89453 -1.97266,-5.05859 0,-3.69141 2.46094,-5.56641 2.48047,-1.875 7.38281,-1.875 l 5.03907,0 0,-0.35156 q 0,-2.48047 -1.64063,-3.82812 -1.62109,-1.36719 -4.57031,-1.36719 -1.875,0 -3.65235,0.44922 -1.77734,0.44922 -3.41796,1.34765 l 0,-3.32031 q 1.97265,-0.76172 3.82812,-1.13281 1.85547,-0.39063 3.61328,-0.39063 4.7461,0 7.08985,2.46094 2.34375,2.46094 2.34375,7.46094 z"
         style=""
         id="path4372" />
      <path
         d="m 482.63495,928.82788 0,6.21094 7.40234,0 0,2.79297 -7.40234,0 0,11.875 q 0,2.67578 0.72265,3.4375 0.74219,0.76172 2.98829,0.76172 l 3.6914,0 0,3.00781 -3.6914,0 q -4.16016,0 -5.74219,-1.54297 -1.58203,-1.5625 -1.58203,-5.66406 l 0,-11.875 -2.63672,0 0,-2.79297 2.63672,0 0,-6.21094 3.61328,0 z"
         style=""
         id="path4374" />
      <path
         d="m 494.41229,948.28101 0,-13.24219 3.59375,0 0,13.10547 q 0,3.10547 1.21094,4.66797 1.21094,1.54296 3.63281,1.54296 2.91016,0 4.58985,-1.85546 1.69921,-1.85547 1.69921,-5.0586 l 0,-12.40234 3.59375,0 0,21.875 -3.59375,0 0,-3.35938 q -1.30859,1.99219 -3.04687,2.96875 -1.71875,0.95703 -4.00391,0.95703 -3.76953,0 -5.72265,-2.34375 -1.95313,-2.34375 -1.95313,-6.85546 z m 9.04297,-13.76954 0,0 z"
         style=""
         id="path4376" />
      <path
         d="m 532.84979,938.39819 q -0.60547,-0.35156 -1.32812,-0.50781 -0.70313,-0.17578 -1.5625,-0.17578 -3.04688,0 -4.6875,1.99219 -1.6211,1.97265 -1.6211,5.68359 l 0,11.52344 -3.61328,0 0,-21.875 3.61328,0 0,3.39844 q 1.13282,-1.99219 2.94922,-2.94922 1.81641,-0.97657 4.41406,-0.97657 0.3711,0 0.82032,0.0586 0.44922,0.0391 0.99609,0.13672 l 0.0195,3.6914 z"
         style=""
         id="path4378" />
      <path
         d="m 554.50995,945.07788 0,1.75781 -16.52344,0 q 0.23438,3.71094 2.22656,5.66407 2.01172,1.93359 5.58594,1.93359 2.07031,0 4.00391,-0.50781 1.95312,-0.50782 3.86718,-1.52344 l 0,3.39844 q -1.93359,0.82031 -3.96484,1.25 -2.03125,0.42968 -4.12109,0.42968 -5.23438,0 -8.30078,-3.04687 -3.04688,-3.04688 -3.04688,-8.24219 0,-5.37109 2.89063,-8.51562 2.91015,-3.16407 7.83203,-3.16407 4.41406,0 6.97265,2.85157 2.57813,2.83203 2.57813,7.71484 z m -3.59375,-1.05469 q -0.0391,-2.94922 -1.66016,-4.70703 -1.60156,-1.75781 -4.25781,-1.75781 -3.00781,0 -4.82422,1.69922 -1.79687,1.69922 -2.07031,4.78515 l 12.8125,-0.0195 z"
         style=""
         id="path4380" />
    </g>
  </g>
</svg>
